solid vcg
facet normal 0.819064736366 -0.245245948434 -0.518639862537
outer loop
vertex -7.56401014328 -5.54451370239 -18.712430954
vertex -6.17209911346 -0.695962309837 -18.8069534302
vertex -5.15644454956 -3.04853582382 -16.0905303955
endloop
endfacet
facet normal 0.539522886276 -0.799084961414 0.265288889408
outer loop
vertex -7.56401014328 -5.54451370239 -18.712430954
vertex -5.15644454956 -3.04853582382 -16.0905303955
vertex -8.48160362244 -5.24983453751 -15.9586896896
endloop
endfacet
facet normal 0.653032124043 0.676049053669 0.341330677271
outer loop
vertex -6.17209911346 -0.695962309837 -18.8069534302
vertex -7.58998298645 -0.711270570755 -16.0639400482
vertex -5.15644454956 -3.04853582382 -16.0905303955
endloop
endfacet
facet normal -0.602922558784 -0.789256036282 -0.116445094347
outer loop
vertex -7.56401014328 -5.54451370239 -18.712430954
vertex -8.48160362244 -5.24983453751 -15.9586896896
vertex -11.2520294189 -3.00940489769 -16.7996082306
endloop
endfacet
facet normal -0.238067269325 0.0692354142666 0.968777835369
outer loop
vertex -8.48160362244 -5.24983453751 -15.9586896896
vertex -7.58998298645 -0.711270570755 -16.0639400482
vertex -11.2520294189 -3.00940489769 -16.7996082306
endloop
endfacet
facet normal 0.0728971809149 -0.030899964273 -0.99686062336
outer loop
vertex -6.4931268692 -16.6843986511 -19.1498737335
vertex -9.47555923462 -16.6367435455 -19.3694458008
vertex -11.1552648544 -3.4430065155 -19.9012470245
endloop
endfacet
facet normal 0.000905355729628 -0.0563355609775 -0.998411476612
outer loop
vertex -11.1552648544 -3.4430065155 -19.9012470245
vertex -3.96958446503 -3.45188713074 -19.8942337036
vertex -6.4931268692 -16.6843986511 -19.1498737335
endloop
endfacet
facet normal -0.676161825657 -0.698138177395 0.235389456153
outer loop
vertex -11.2519807816 -3.00941991806 -12.8348436356
vertex -8.20562744141 -6.21646642685 -13.5958518982
vertex -8.62102985382 -4.90464162827 -10.8983840942
endloop
endfacet
facet normal 0.637141466141 0.724980711937 0.261636614799
outer loop
vertex -5.15644454956 -3.04853582382 -16.0905303955
vertex -8.54407596588 -0.956934332848 -13.636631012
vertex -5.50916337967 -3.57497477531 -13.7728509903
endloop
endfacet
facet normal 0.987101495266 -0.087696954608 0.133939936757
outer loop
vertex -7.36031341553 -17.1542243958 -15.7981271744
vertex -6.58903455734 -8.63227176666 -15.9024877548
vertex -6.83758020401 -7.7058634758 -13.4642114639
endloop
endfacet
facet normal -0.373678952456 0.0224641673267 -0.927286028862
outer loop
vertex -7.36031341553 -17.1542243958 -15.7981271744
vertex -9.25525856018 -8.53974628448 -14.8258104324
vertex -6.58903455734 -8.63227176666 -15.9024877548
endloop
endfacet
facet normal -0.389932245016 0.918080210686 0.0712846368551
outer loop
vertex -9.40566253662 -2.0787832737 -18.6853656769
vertex -11.2520294189 -3.00940489769 -16.7996082306
vertex -6.17209911346 -0.695962309837 -18.8069534302
endloop
endfacet
facet normal 0.397751927376 0.218319892883 -0.891139626503
outer loop
vertex -7.56401014328 -5.54451370239 -18.712430954
vertex -9.40566253662 -2.0787832737 -18.6853656769
vertex -7.59003448486 -3.09014463425 -18.122751236
endloop
endfacet
facet normal 0.106245681643 -0.330886930227 -0.937670409679
outer loop
vertex -7.59003448486 -3.09014463425 -18.122751236
vertex -9.40566253662 -2.0787832737 -18.6853656769
vertex -6.17209911346 -0.695962309837 -18.8069534302
endloop
endfacet
facet normal 0.383897542953 0.402961879969 -0.830809473991
outer loop
vertex -8.48160362244 -5.24983453751 -15.9586896896
vertex -5.50916337967 -3.57497477531 -13.7728509903
vertex -7.70744466782 -6.97550964355 -16.4379615784
endloop
endfacet
facet normal -0.916625678539 -0.395955234766 -0.0549239739776
outer loop
vertex -7.70744466782 -6.97550964355 -16.4379615784
vertex -8.20562744141 -6.21646642685 -13.5958518982
vertex -8.48160362244 -5.24983453751 -15.9586896896
endloop
endfacet
facet normal -0.810815393925 0.514270782471 -0.279471188784
outer loop
vertex -7.70744466782 -6.97550964355 -16.4379615784
vertex -9.25525856018 -8.53974628448 -14.8258104324
vertex -8.20562744141 -6.21646642685 -13.5958518982
endloop
endfacet
facet normal -0.341050952673 -0.48959544301 -0.802483916283
outer loop
vertex -9.25525856018 -8.53974628448 -14.8258104324
vertex -7.70744466782 -6.97550964355 -16.4379615784
vertex -6.58903455734 -8.63227176666 -15.9024877548
endloop
endfacet
facet normal -0.00381902861409 -0.0908553749323 0.995856821537
outer loop
vertex -10.8155460358 -3.77632880211 -18.2012844086
vertex -9.47555923462 -16.6367435455 -19.3694458008
vertex -7.70978975296 -2.78532624245 -18.0989646912
endloop
endfacet
facet normal 0.968308150768 -0.174619361758 0.178570315242
outer loop
vertex -4.37669897079 -3.99249124527 -18.2152690887
vertex -6.4931268692 -16.6843986511 -19.1498737335
vertex -3.96958446503 -3.45188713074 -19.8942337036
endloop
endfacet
facet normal 0.00149703398347 0.938480913639 -0.345327794552
outer loop
vertex -7.70978975296 -2.78532624245 -18.0989646912
vertex -3.96958446503 -3.45188713074 -19.8942337036
vertex -11.1552648544 -3.4430065155 -19.9012470245
endloop
endfacet
facet normal 0.328703641891 0.872822761536 0.360741227865
outer loop
vertex -4.37669897079 -3.99249124527 -18.2152690887
vertex -3.96958446503 -3.45188713074 -19.8942337036
vertex -7.70978975296 -2.78532624245 -18.0989646912
endloop
endfacet
facet normal -0.991782486439 0.05930698663 0.113358840346
outer loop
vertex -7.70978975296 -2.78532624245 -18.0989646912
vertex -8.14562892914 -16.6484470367 -14.6592559814
vertex -7.31079769135 -2.77498149872 -14.613574028
endloop
endfacet
facet normal 0.653198480606 0.753117382526 -0.07839692384
outer loop
vertex -8.54407596588 -0.956935763359 13.636631012
vertex -5.50916719437 -3.57501101494 13.7728433609
vertex -5.85408973694 -3.56618356705 10.9837722778
endloop
endfacet
facet normal 0.807762265205 0.467066198587 0.359679311514
outer loop
vertex -5.85408973694 -3.56618356705 10.9837722778
vertex -7.39318227768 -0.86638122797 10.9343795776
vertex -8.54407596588 -0.956935763359 13.636631012
endloop
endfacet
facet normal -0.0102294879034 -0.479296326637 0.877593517303
outer loop
vertex -10.2516498566 -15.6877326965 -11.1582841873
vertex -8.01735973358 -16.9775905609 -11.8366937637
vertex -5.72666549683 -15.6543235779 -11.0872936249
endloop
endfacet
facet normal 0.549843549728 -0.773994982243 -0.314012497663
outer loop
vertex -5.72666549683 -15.6543235779 -11.0872936249
vertex -8.01735973358 -16.9775905609 -11.8366937637
vertex -5.90359592438 -12.9906682968 -17.9626255035
endloop
endfacet
facet normal -0.0131580680609 0.912264227867 0.409390807152
outer loop
vertex -9.91741371155 -12.6606111526 -17.8930130005
vertex -10.2516498566 -15.6877326965 -11.1582841873
vertex -5.72666549683 -15.6543235779 -11.0872936249
endloop
endfacet
facet normal 0.704767167568 -0.708898305893 -0.0276809893548
outer loop
vertex -8.26259422302 -6.1334939003 16.0093383789
vertex -5.15641069412 -3.04857778549 16.090461731
vertex -7.56401443481 -5.54453468323 18.7124176025
endloop
endfacet
facet normal 0.653053760529 0.676037490368 -0.341312527657
outer loop
vertex -5.15641069412 -3.04857778549 16.090461731
vertex -7.58992242813 -0.711230516434 16.0638580322
vertex -6.17208957672 -0.69595015049 18.8069496155
endloop
endfacet
facet normal -0.643532574177 -0.696229100227 0.318011015654
outer loop
vertex -11.2520008087 -3.00940704346 16.7995681763
vertex -8.26259422302 -6.1334939003 16.0093383789
vertex -7.56401443481 -5.54453468323 18.7124176025
endloop
endfacet
facet normal -0.480015575886 0.842813968658 0.243412569165
outer loop
vertex -6.17208957672 -0.69595015049 18.8069496155
vertex -7.58992242813 -0.711230516434 16.0638580322
vertex -11.2520008087 -3.00940704346 16.7995681763
endloop
endfacet
facet normal 0.436186462641 -0.898062765598 -0.0567850135267
outer loop
vertex -8.62100791931 -4.90466737747 10.8983736038
vertex -5.85408973694 -3.56618356705 10.9837722778
vertex -5.50916719437 -3.57501101494 13.7728433609
endloop
endfacet
facet normal 0.0728255882859 -0.0346265286207 0.996743440628
outer loop
vertex -10.835231781 -3.46593546867 19.9263629913
vertex -9.47566127777 -16.6367282867 19.3694782257
vertex -6.49303817749 -16.6843967438 19.1498985291
endloop
endfacet
facet normal 0.000479411100969 -0.0584828928113 0.998288333416
outer loop
vertex -6.49303817749 -16.6843967438 19.1498985291
vertex -4.21882247925 -3.48551273346 19.922039032
vertex -10.835231781 -3.46593546867 19.9263629913
endloop
endfacet
facet normal -0.550397753716 -0.83223092556 0.0667382851243
outer loop
vertex -8.62100791931 -4.90466737747 10.8983736038
vertex -7.63038158417 -5.34323692322 13.5991725922
vertex -11.2519369125 -3.00940656662 12.834854126
endloop
endfacet
facet normal -0.551103651524 0.808191299438 -0.207633092999
outer loop
vertex -11.2519369125 -3.00940656662 12.834854126
vertex -8.54407596588 -0.956935763359 13.636631012
vertex -7.39318227768 -0.86638122797 10.9343795776
endloop
endfacet
facet normal 0.637143552303 0.724973797798 -0.261650890112
outer loop
vertex -5.50916719437 -3.57501101494 13.7728433609
vertex -8.54407596588 -0.956935763359 13.636631012
vertex -5.15641069412 -3.04857778549 16.090461731
endloop
endfacet
facet normal 0.975361704826 -0.0811824724078 0.205131679773
outer loop
vertex -6.12929296494 -7.55049467087 14.1459379196
vertex -6.59438371658 -8.62985706329 15.9301872253
vertex -6.91320562363 -17.10729599 14.0911054611
endloop
endfacet
facet normal -0.086351506412 0.0127986883745 -0.996182501316
outer loop
vertex -6.91320562363 -17.10729599 14.0911054611
vertex -9.43490982056 -7.82790231705 14.4289102554
vertex -6.12929296494 -7.55049467087 14.1459379196
endloop
endfacet
facet normal -0.444263964891 0.0942457467318 0.890924930573
outer loop
vertex -6.59438371658 -8.62985706329 15.9301872253
vertex -9.43490982056 -7.82790231705 14.4289102554
vertex -9.12082195282 -17.0432052612 15.5603647232
endloop
endfacet
facet normal -0.597479224205 -0.311721175909 0.738815665245
outer loop
vertex -9.40567588806 -2.07878899574 18.6853351593
vertex -11.2520008087 -3.00940704346 16.7995681763
vertex -7.56401443481 -5.54453468323 18.7124176025
endloop
endfacet
facet normal -0.389933943748 0.918079078197 -0.0712898522615
outer loop
vertex -6.17208957672 -0.69595015049 18.8069496155
vertex -11.2520008087 -3.00940704346 16.7995681763
vertex -9.40567588806 -2.07878899574 18.6853351593
endloop
endfacet
facet normal -0.506812691689 0.161644235253 -0.846765637398
outer loop
vertex -8.62100791931 -4.90466737747 10.8983736038
vertex -11.2519369125 -3.00940656662 12.834854126
vertex -7.39318227768 -0.86638122797 10.9343795776
endloop
endfacet
facet normal -0.647706091404 0.171467393637 0.742344796658
outer loop
vertex -7.59002923965 -3.09014105797 18.122800827
vertex -7.56401443481 -5.54453468323 18.7124176025
vertex -6.17208957672 -0.69595015049 18.8069496155
endloop
endfacet
facet normal 0.106226377189 -0.330856770277 0.937683165073
outer loop
vertex -6.17208957672 -0.69595015049 18.8069496155
vertex -9.40567588806 -2.07878899574 18.6853351593
vertex -7.59002923965 -3.09014105797 18.122800827
endloop
endfacet
facet normal 0.0311149358749 -0.000548424141016 -0.999515712261
outer loop
vertex -7.39318227768 -0.86638122797 10.9343795776
vertex -5.85408973694 -3.56618356705 10.9837722778
vertex -8.62100791931 -4.90466737747 10.8983736038
endloop
endfacet
facet normal -0.0587978288531 -0.27752238512 -0.958918213844
outer loop
vertex -7.63038158417 -5.34323692322 13.5991725922
vertex -6.12929296494 -7.55049467087 14.1459379196
vertex -9.43490982056 -7.82790231705 14.4289102554
endloop
endfacet
facet normal -0.812414169312 0.582663536072 -0.0220589432865
outer loop
vertex -7.63038158417 -5.34323692322 13.5991725922
vertex -9.43490982056 -7.82790231705 14.4289102554
vertex -8.26259422302 -6.1334939003 16.0093383789
endloop
endfacet
facet normal 0.736213862896 0.476750791073 0.480310231447
outer loop
vertex -6.59438371658 -8.62985706329 15.9301872253
vertex -6.12929296494 -7.55049467087 14.1459379196
vertex -8.26259422302 -6.1334939003 16.0093383789
endloop
endfacet
facet normal 0.0212791748345 -0.0735434740782 -0.997064948082
outer loop
vertex -6.49303817749 -16.6843967438 19.1498985291
vertex -7.70982265472 -2.78535103798 18.0987377167
vertex -4.04410028458 -3.89348292351 18.2587051392
endloop
endfacet
facet normal 0.00299903796986 0.93543946743 0.353474229574
outer loop
vertex -10.835231781 -3.46593546867 19.9263629913
vertex -4.21882247925 -3.48551273346 19.922039032
vertex -7.70982265472 -2.78535103798 18.0987377167
endloop
endfacet
facet normal 0.291524350643 0.935662567616 -0.198869735003
outer loop
vertex -7.70982265472 -2.78535103798 18.0987377167
vertex -4.21882247925 -3.48551273346 19.922039032
vertex -4.04410028458 -3.89348292351 18.2587051392
endloop
endfacet
facet normal 0.988967001438 0.0951644927263 0.113525107503
outer loop
vertex -7.70982265472 -2.78535103798 18.0987377167
vertex -6.49303817749 -16.6843967438 19.1498985291
vertex -7.31077766418 -2.77492070198 14.6137332916
endloop
endfacet
facet normal -0.991779506207 0.0593077354133 -0.113384641707
outer loop
vertex -7.31077766418 -2.77492070198 14.6137332916
vertex -8.14562416077 -16.6484661102 14.6593751907
vertex -7.70982265472 -2.78535103798 18.0987377167
endloop
endfacet
facet normal 0.0815611407161 0.903053402901 -0.421713650227
outer loop
vertex -9.92069339752 -12.6606092453 17.8924770355
vertex -5.90359735489 -12.990696907 17.9625511169
vertex -5.73975038528 -16.1056938171 11.3238134384
endloop
endfacet
facet normal 0.156500682235 0.912155330181 -0.37878793478
outer loop
vertex -5.73975038528 -16.1056938171 11.3238134384
vertex -10.2635908127 -15.4309196472 11.0796508789
vertex -9.92069339752 -12.6606092453 17.8924770355
endloop
endfacet
facet normal 0.973532795906 -0.17625439167 0.145493119955
outer loop
vertex -6.49303817749 -16.6843967438 19.1498985291
vertex -4.04410028458 -3.89348292351 18.2587051392
vertex -4.21882247925 -3.48551273346 19.922039032
endloop
endfacet
facet normal -0.957740724087 0.0972639098763 -0.27068901062
outer loop
vertex -8.14562416077 -16.6484661102 14.6593751907
vertex -9.47566127777 -16.6367282867 19.3694782257
vertex -7.70982265472 -2.78535103798 18.0987377167
endloop
endfacet
facet normal -0.160635411739 0.086177892983 -0.983244478703
outer loop
vertex -76.8836364746 -21.0445289612 -1.76709842682
vertex -76.4248504639 -15.8807964325 -1.38946795464
vertex -53.3023376465 -14.8930463791 -5.08048677444
endloop
endfacet
facet normal -0.129324093461 -0.0379625447094 -0.990875422955
outer loop
vertex -53.3023376465 -14.8930463791 -5.08048677444
vertex -48.0768432617 -24.1343383789 -5.40843868256
vertex -76.8836364746 -21.0445289612 -1.76709842682
endloop
endfacet
facet normal -0.0219290666282 -0.466902017593 -0.884037137032
outer loop
vertex -5.73975038528 -16.1056938171 11.3238134384
vertex -8.0174369812 -16.980260849 11.8422117233
vertex -10.2635908127 -15.4309196472 11.0796508789
endloop
endfacet
facet normal -0.609254837036 -0.723395228386 0.324819594622
outer loop
vertex -9.92069339752 -12.6606092453 17.8924770355
vertex -10.2635908127 -15.4309196472 11.0796508789
vertex -8.0174369812 -16.980260849 11.8422117233
endloop
endfacet
facet normal -0.882656753063 0.404771834612 -0.238907173276
outer loop
vertex 59.0384216309 -33.4265136719 -31.4172115326
vertex 57.3674736023 -36.3078994751 -30.1256008148
vertex 49.4585838318 -35.7731170654 0.000287295086309
endloop
endfacet
facet normal -0.9419734478 0.19590370357 -0.2725943923
outer loop
vertex 49.4585838318 -35.7731170654 0.000287295086309
vertex 50.0051803589 -33.1450805664 0.000155498535605
vertex 59.0384216309 -33.4265136719 -31.4172115326
endloop
endfacet
facet normal -0.141611114144 -0.934125542641 -0.327652007341
outer loop
vertex -76.8836364746 -21.0445289612 -1.76709842682
vertex -48.0768432617 -24.1343383789 -5.40843868256
vertex -45.7551269531 -27.0041503906 1.76985573769
endloop
endfacet
facet normal -0.00963016226888 -0.79974848032 -0.600257992744
outer loop
vertex 38.8779754639 -24.5066833496 -6.30739593506
vertex 51.2618598938 -28.3233604431 -1.42096352577
vertex -48.0768432617 -24.1343383789 -5.40843868256
endloop
endfacet
facet normal 0.0332368537784 0.882445931435 -0.469238370657
outer loop
vertex 38.9336547852 -15.7460021973 -0.151333540678
vertex 37.6138114929 -18.453792572 -5.33707046509
vertex -53.3023376465 -14.8930463791 -5.08048677444
endloop
endfacet
facet normal 0.0034404376056 0.158986419439 -0.987274765968
outer loop
vertex 37.6138114929 -18.453792572 -5.33707046509
vertex 38.8779754639 -24.5066833496 -6.30739593506
vertex -53.3023376465 -14.8930463791 -5.08048677444
endloop
endfacet
facet normal 0.158989340067 0.837472140789 -0.52284103632
outer loop
vertex 76.9580917358 -23.7434520721 -1.39867317677
vertex 38.9336547852 -15.7460021973 -0.151333540678
vertex 75.1797180176 -21.7991943359 1.17480528355
endloop
endfacet
facet normal 0.122126474977 0.181918814778 -0.975700080395
outer loop
vertex 37.6138114929 -18.453792572 -5.33707046509
vertex 76.9580917358 -23.7434520721 -1.39867317677
vertex 38.8779754639 -24.5066833496 -6.30739593506
endloop
endfacet
facet normal 0.112096011639 -0.625171661377 -0.772395551205
outer loop
vertex 38.8779754639 -24.5066833496 -6.30739593506
vertex 76.9580917358 -23.7434520721 -1.39867317677
vertex 51.2618598938 -28.3233604431 -1.42096352577
endloop
endfacet
facet normal 0.072636500001 -0.0102139767259 -0.997306108475
outer loop
vertex 51.2618598938 -28.3233604431 -1.42096352577
vertex 71.0802001953 -26.2147674561 0.000864313566126
vertex 68.5346603394 -44.6795845032 0.00457515474409
endloop
endfacet
facet normal 0.00153979950119 -0.0852126404643 -0.996361553669
outer loop
vertex 68.5346603394 -44.6795845032 0.00457515474409
vertex 56.7494697571 -44.8506393433 0.000991380773485
vertex 51.2618598938 -28.3233604431 -1.42096352577
endloop
endfacet
facet normal -0.0102412747219 -0.994938790798 0.0999595597386
outer loop
vertex 51.2618598938 -28.3233604431 -1.42096352577
vertex 11.7322998047 -27.2501068115 5.21154689789
vertex -45.7551269531 -27.0041503906 1.76985573769
endloop
endfacet
facet normal -0.118414334953 -0.653140664101 0.747920751572
outer loop
vertex -45.7551269531 -27.0041503906 1.76985573769
vertex -49.5054512024 -20.6875343323 6.6922287941
vertex -75.9911422729 -19.7940864563 3.27911567688
endloop
endfacet
facet normal -0.0512538552284 0.997212827206 -0.0542179942131
outer loop
vertex -45.9941940308 -14.0013828278 4.41091632843
vertex -53.3023376465 -14.8930463791 -5.08048677444
vertex -76.4248504639 -15.8807964325 -1.38946795464
endloop
endfacet
facet normal -0.106393836439 0.370679825544 0.922646641731
outer loop
vertex -49.5054512024 -20.6875343323 6.6922287941
vertex -45.9941940308 -14.0013828278 4.41091632843
vertex -75.9911422729 -19.7940864563 3.27911567688
endloop
endfacet
facet normal -0.0490127056837 -0.631879627705 0.773515164852
outer loop
vertex 11.7322998047 -27.2501068115 5.21154689789
vertex -49.5054512024 -20.6875343323 6.6922287941
vertex -45.7551269531 -27.0041503906 1.76985573769
endloop
endfacet
facet normal -0.00584086589515 0.325660824776 0.945468604565
outer loop
vertex 25.0950927734 -19.8421554565 6.86190605164
vertex -45.9941940308 -14.0013828278 4.41091632843
vertex -49.5054512024 -20.6875343323 6.6922287941
endloop
endfacet
facet normal 0.0696560591459 -0.334984868765 0.939645290375
outer loop
vertex 25.0950927734 -19.8421554565 6.86190605164
vertex 11.7322998047 -27.2501068115 5.21154689789
vertex 76.7766342163 -24.0518112183 1.52999579906
endloop
endfacet
facet normal -0.0144864460453 -0.99707788229 0.0750060155988
outer loop
vertex 11.7322998047 -27.2501068115 5.21154689789
vertex 51.2618598938 -28.3233604431 -1.42096352577
vertex 51.4550704956 -28.1150436401 1.38559126854
endloop
endfacet
facet normal 0.102838374674 0.757123529911 0.645126581192
outer loop
vertex 25.0950927734 -19.8421554565 6.86190605164
vertex 75.1797180176 -21.7991943359 1.17480528355
vertex 38.9336547852 -15.7460021973 -0.151333540678
endloop
endfacet
facet normal 0.118706054986 -0.762370288372 0.636160612106
outer loop
vertex 76.7766342163 -24.0518112183 1.52999579906
vertex 51.4550704956 -28.1150436401 1.38559126854
vertex 71.0802001953 -26.2147674561 0.000864313566126
endloop
endfacet
facet normal -0.984923601151 0.0761495009065 0.155328094959
outer loop
vertex -75.9911422729 -19.7940864563 3.27911567688
vertex -76.4248504639 -15.8807964325 -1.38946795464
vertex -76.8836364746 -21.0445289612 -1.76709842682
endloop
endfacet
facet normal 0.0555927455425 -0.998435914516 -0.00592972710729
outer loop
vertex 62.0335540771 -36.4102096558 30.8480758667
vertex 57.3674736023 -36.3078994751 -30.1256008148
vertex 62.5496559143 -36.0225028992 -29.5958766937
endloop
endfacet
facet normal 0.0326242893934 -0.999464809895 -0.00242887251079
outer loop
vertex 68.8608016968 -35.9580345154 28.6477489471
vertex 62.5496559143 -36.0225028992 -29.5958766937
vertex 69.0282440186 -35.8131484985 -28.7243976593
endloop
endfacet
facet normal 0.0321328528225 0.999469935894 0.00523437419906
outer loop
vertex 68.875 -33.7536125183 -29.3447742462
vertex 59.0384216309 -33.4265136719 -31.4172115326
vertex 57.0793380737 -33.6873664856 30.4164676666
endloop
endfacet
facet normal 0.000244571390795 0.999999403954 -0.00106028397568
outer loop
vertex 57.0793380737 -33.6873664856 30.4164676666
vertex 68.8114471436 -33.6912536621 29.4564609528
vertex 68.875 -33.7536125183 -29.3447742462
endloop
endfacet
facet normal 0.115330219269 -0.461237758398 -0.879749178886
outer loop
vertex 59.0384216309 -33.4265136719 -31.4172115326
vertex 62.5496559143 -36.0225028992 -29.5958766937
vertex 57.3674736023 -36.3078994751 -30.1256008148
endloop
endfacet
facet normal -0.0443447455764 -0.998998761177 0.00591083895415
outer loop
vertex 68.8608016968 -35.9580345154 28.6477489471
vertex 62.3650512695 -35.6653709412 29.3781871796
vertex 62.5496559143 -36.0225028992 -29.5958766937
endloop
endfacet
facet normal 0.133610635996 -0.441707730293 -0.88715416193
outer loop
vertex 62.5496559143 -36.0225028992 -29.5958766937
vertex 59.0384216309 -33.4265136719 -31.4172115326
vertex 69.0282440186 -35.8131484985 -28.7243976593
endloop
endfacet
facet normal -0.0920959711075 -0.879693925381 -0.466537177563
outer loop
vertex 68.8608016968 -35.9580345154 28.6477489471
vertex 62.0335540771 -36.4102096558 30.8480758667
vertex 62.3650512695 -35.6653709412 29.3781871796
endloop
endfacet
facet normal 0.106034778059 0.991828083992 -0.0709487199783
outer loop
vertex -29.5871734619 -24.847486496 4.03339004517
vertex -29.8490715027 -25.4270935059 -4.46060943604
vertex -48.5033035278 -23.44921875 -4.69014549255
endloop
endfacet
facet normal 0.082603469491 0.996393442154 -0.0194084290415
outer loop
vertex -48.5033035278 -23.44921875 -4.69014549255
vertex -48.5335617065 -23.2688598633 4.44021034241
vertex -29.5871734619 -24.847486496 4.03339004517
endloop
endfacet
facet normal 0.99978107214 0.0207095015794 0.00297018443234
outer loop
vertex 68.8608016968 -35.9580345154 28.6477489471
vertex 69.0282440186 -35.8131484985 -28.7243976593
vertex 68.8114471436 -33.6912536621 29.4564609528
endloop
endfacet
facet normal -0.05721097067 -0.998358428478 0.00270301569253
outer loop
vertex 57.3674736023 -36.3078994751 -30.1256008148
vertex 62.0335540771 -36.4102096558 30.8480758667
vertex 49.4585838318 -35.7731170654 0.000287295086309
endloop
endfacet
facet normal -0.508491516113 -0.859432637691 0.0530271008611
outer loop
vertex -50.7696762085 -28.7719841003 -2.07957577705
vertex -50.5564613342 -28.60414505 2.68516802788
vertex -58.5596580505 -23.889339447 2.35516476631
endloop
endfacet
facet normal 0.050119496882 0.998551666737 -0.0195591319352
outer loop
vertex -48.5335617065 -23.2688598633 4.44021034241
vertex -48.5033035278 -23.44921875 -4.69014549255
vertex -58.648525238 -22.8960189819 -2.4443757534
endloop
endfacet
facet normal -0.102562494576 0.973705112934 0.203418940306
outer loop
vertex -58.648525238 -22.8960189819 -2.4443757534
vertex -58.5596580505 -23.889339447 2.35516476631
vertex -48.5335617065 -23.2688598633 4.44021034241
endloop
endfacet
facet normal 0.154599294066 -0.61495500803 -0.773258984089
outer loop
vertex -29.8490715027 -25.4270935059 -4.46060943604
vertex -28.5443153381 -30.1554450989 -0.439399123192
vertex -39.4625930786 -30.570268631 -2.29241323471
endloop
endfacet
facet normal -0.220549076796 -0.352194607258 -0.909569680691
outer loop
vertex -48.5033035278 -23.44921875 -4.69014549255
vertex -50.7696762085 -28.7719841003 -2.07957577705
vertex -58.648525238 -22.8960189819 -2.4443757534
endloop
endfacet
facet normal -0.586141347885 -0.795480728149 -0.153781250119
outer loop
vertex -58.5596580505 -23.889339447 2.35516476631
vertex -58.648525238 -22.8960189819 -2.4443757534
vertex -50.7696762085 -28.7719841003 -2.07957577705
endloop
endfacet
facet normal 0.169804543257 0.982822060585 -0.0723001509905
outer loop
vertex -29.5871734619 -24.847486496 4.03339004517
vertex -21.8361206055 -26.4833526611 0.000220373054617
vertex -29.8490715027 -25.4270935059 -4.46060943604
endloop
endfacet
facet normal 0.445021778345 -0.0884726122022 0.891138732433
outer loop
vertex -29.5871734619 -24.847486496 4.03339004517
vertex -29.4877357483 -28.5343399048 3.61769938469
vertex -21.8361206055 -26.4833526611 0.000220373054617
endloop
endfacet
facet normal -0.0266918949783 -0.930405676365 0.365558385849
outer loop
vertex -28.5443153381 -30.1554450989 -0.439399123192
vertex -29.4877357483 -28.5343399048 3.61769938469
vertex -39.4625930786 -30.570268631 -2.29241323471
endloop
endfacet
facet normal -0.182964026928 -0.243913650513 0.952381372452
outer loop
vertex -58.5596580505 -23.889339447 2.35516476631
vertex -50.5564613342 -28.60414505 2.68516802788
vertex -48.5335617065 -23.2688598633 4.44021034241
endloop
endfacet
facet normal -0.0412223935127 -0.298074215651 0.953652143478
outer loop
vertex -48.5335617065 -23.2688598633 4.44021034241
vertex -50.5564613342 -28.60414505 2.68516802788
vertex -29.4877357483 -28.5343399048 3.61769938469
endloop
endfacet
facet normal 0.410632520914 0.911198556423 0.0331390872598
outer loop
vertex -58.1734085083 -11.5389480591 -2.23191714287
vertex -58.2155418396 -11.6825704575 2.23926305771
vertex -51.418006897 -14.7457647324 2.23606801033
endloop
endfacet
facet normal 0.433407247066 0.901158034801 -0.00850365217775
outer loop
vertex -51.418006897 -14.7457647324 2.23606801033
vertex -51.528011322 -14.7352924347 -2.26066422462
vertex -58.1734085083 -11.5389480591 -2.23191714287
endloop
endfacet
facet normal -0.924857199192 -0.27629801631 -0.261340111494
outer loop
vertex -57.9738960266 -3.52135109901 3.2962782383
vertex -58.1416740417 -1.01948928833 1.24493408203
vertex -57.1471328735 -4.19822692871 1.08607137203
endloop
endfacet
facet normal 0.251373380423 -0.895134687424 0.368164777756
outer loop
vertex -55.0108757019 -2.69071745872 3.29275488853
vertex -57.9738960266 -3.52135109901 3.2962782383
vertex -57.1471328735 -4.19822692871 1.08607137203
endloop
endfacet
facet normal -0.854897975922 0.29345369339 0.427825152874
outer loop
vertex -57.9738960266 -3.52135109901 3.2962782383
vertex -57.1179122925 -0.910649895668 3.21600246429
vertex -58.1416740417 -1.01948928833 1.24493408203
endloop
endfacet
facet normal 0.198884442449 0.885952830315 0.418966054916
outer loop
vertex -55.0108757019 -2.69071745872 3.29275488853
vertex -54.7789878845 -1.74166059494 1.17577826977
vertex -58.1416740417 -1.01948928833 1.24493408203
endloop
endfacet
facet normal -0.00817840918899 0.0334119945765 0.999408125877
outer loop
vertex -55.0108757019 -2.69071745872 3.29275488853
vertex -57.1179122925 -0.910649895668 3.21600246429
vertex -57.9738960266 -3.52135109901 3.2962782383
endloop
endfacet
facet normal 0.884832859039 -0.0334902517498 0.464703410864
outer loop
vertex -56.9609680176 -14.3505573273 -5.87419854128e-05
vertex -56.0317955017 -4.12699890137 -1.03248739243
vertex -57.1471328735 -4.19822692871 1.08607137203
endloop
endfacet
facet normal -0.583753228188 -0.754943072796 0.298819333315
outer loop
vertex -56.0317955017 -4.12699890137 -1.03248739243
vertex -58.2215080261 -2.41823959351 -0.993146240711
vertex -57.9738845825 -3.52135825157 -3.29632925987
endloop
endfacet
facet normal 0.934387385845 -0.196416586637 0.297221720219
outer loop
vertex -55.0108833313 -2.6907145977 -3.29281663895
vertex -55.323474884 -0.972022950649 -1.1743324995
vertex -56.0317955017 -4.12699890137 -1.03248739243
endloop
endfacet
facet normal 0.559220910072 0.682240784168 -0.47097709775
outer loop
vertex -57.1179046631 -0.910639643669 -3.21605491638
vertex -55.323474884 -0.972022950649 -1.1743324995
vertex -55.0108833313 -2.6907145977 -3.29281663895
endloop
endfacet
facet normal -0.395548015833 0.839349210262 0.372873753309
outer loop
vertex -58.2215080261 -2.41823959351 -0.993146240711
vertex -55.323474884 -0.972022950649 -1.1743324995
vertex -57.1179046631 -0.910639643669 -3.21605491638
endloop
endfacet
facet normal -0.417315006256 0.777251839638 -0.470879673958
outer loop
vertex -55.323474884 -0.972022950649 -1.1743324995
vertex -58.2215080261 -2.41823959351 -0.993146240711
vertex -58.1416740417 -1.01948928833 1.24493408203
endloop
endfacet
facet normal -0.0896138474345 -0.0920042917132 -0.991717934608
outer loop
vertex -58.2215080261 -2.41823959351 -0.993146240711
vertex -56.0317955017 -4.12699890137 -1.03248739243
vertex -56.9609680176 -14.3505573273 -5.87419854128e-05
endloop
endfacet
facet normal 0.700293362141 -0.098873898387 -0.706974744797
outer loop
vertex -59.305103302 -14.8946914673 -1.35161936283
vertex -59.1356620789 -5.61795043945 -2.48116850853
vertex -57.3683128357 -5.72092533112 -0.716121196747
endloop
endfacet
facet normal -0.999711513519 0.0198978167027 0.0134528158233
outer loop
vertex -59.0689544678 -5.62762880325 2.4903512001
vertex -59.1356620789 -5.61795043945 -2.48116850853
vertex -59.305103302 -14.8946914673 -1.35161936283
endloop
endfacet
facet normal 0.745723962784 -0.0867496207356 0.660583257675
outer loop
vertex -57.5346603394 -5.70784187317 0.747772216797
vertex -59.0689544678 -5.62762880325 2.4903512001
vertex -59.1350708008 -14.8771629333 1.35030734539
endloop
endfacet
facet normal 0.124511919916 -0.991663634777 0.0331675410271
outer loop
vertex 5.85771894455 -18.880613327 -48.1794776917
vertex -0.03679895401 -19.6224536896 -48.2312850952
vertex -1.74514484406 -20.592716217 -70.8274688721
endloop
endfacet
facet normal 0.144331559539 -0.989179074764 0.026326790452
outer loop
vertex -1.74514484406 -20.592716217 -70.8274688721
vertex 2.20205879211 -20.0286064148 -71.2719039917
vertex 5.85771894455 -18.880613327 -48.1794776917
endloop
endfacet
facet normal -0.120845019817 0.992671132088 0.000681880919728
outer loop
vertex -40.5889358521 -15.7424726486 -11.8556442261
vertex -35.9947280884 -15.1843585968 -10.1492509842
vertex -36.1732063293 -15.2029705048 -14.6880235672
endloop
endfacet
facet normal -0.333649218082 0.873818099499 -0.353723496199
outer loop
vertex -36.1732063293 -15.2029705048 -14.6880235672
vertex -40.2160644531 -17.8024635315 -17.2962379456
vertex -40.5889358521 -15.7424726486 -11.8556442261
endloop
endfacet
facet normal -0.0474547445774 0.303220182657 -0.951738297939
outer loop
vertex 2.13634872437 -16.615694046 -77.1621780396
vertex 2.92332458496 -21.7353935242 -78.83253479
vertex -21.2345619202 -22.2493228912 -77.7917404175
endloop
endfacet
facet normal -0.341075837612 -0.771204173565 0.537504732609
outer loop
vertex -17.2527046204 -20.5689201355 -72.8540039062
vertex -22.284954071 -20.3299407959 -75.7043685913
vertex -21.2345619202 -22.2493228912 -77.7917404175
endloop
endfacet
facet normal -0.532586336136 0.34376719594 0.7734182477
outer loop
vertex -22.284954071 -20.3299407959 -75.7043685913
vertex -16.8807220459 -18.0261650085 -73.0069198608
vertex -21.7297840118 -17.076631546 -76.7680892944
endloop
endfacet
facet normal 0.323454499245 -0.830225944519 0.453984618187
outer loop
vertex 2.20205879211 -20.0286064148 -71.2719039917
vertex 0.15834569931 -23.145198822 -75.5152816772
vertex 7.97444438934 -20.422416687 -76.1047897339
endloop
endfacet
facet normal 0.0241223350167 0.907866060734 0.418565839529
outer loop
vertex -16.8807220459 -18.0261650085 -73.0069198608
vertex -1.69011211395 -19.2878990173 -71.1456756592
vertex 2.13634872437 -16.615694046 -77.1621780396
endloop
endfacet
facet normal -0.891715943813 0.0041912891902 -0.452576071024
outer loop
vertex -22.284954071 -20.3299407959 -75.7043685913
vertex -21.7297840118 -17.076631546 -76.7680892944
vertex -21.2345619202 -22.2493228912 -77.7917404175
endloop
endfacet
facet normal -0.0143091389909 0.964946508408 0.262056261301
outer loop
vertex 2.13634872437 -16.615694046 -77.1621780396
vertex -21.7297840118 -17.076631546 -76.7680892944
vertex -16.8807220459 -18.0261650085 -73.0069198608
endloop
endfacet
facet normal 0.0962478220463 -0.323698818684 -0.941252052784
outer loop
vertex 10.0948486328 -24.7446746826 -15.50852108
vertex 9.93340873718 -18.0132369995 -17.8399868011
vertex 28.0315361023 -20.970539093 -14.9723367691
endloop
endfacet
facet normal 0.207327410579 0.802549958229 -0.559400498867
outer loop
vertex 28.0656585693 -18.8052406311 -11.8532218933
vertex 28.0315361023 -20.970539093 -14.9723367691
vertex 7.82073974609 -15.8654794693 -15.1389169693
endloop
endfacet
facet normal -0.121954642236 0.504740715027 -0.854613423347
outer loop
vertex -36.1732063293 -15.2029705048 -14.6880235672
vertex -22.7496414185 -14.998799324 -16.483001709
vertex -36.342628479 -20.6058197021 -17.8548049927
endloop
endfacet
facet normal 0.970466136932 -0.0867890492082 0.225084736943
outer loop
vertex 27.9287567139 -23.1231174469 -12.927854538
vertex 28.0656585693 -18.8052406311 -11.8532218933
vertex 27.3631095886 -22.6357135773 -10.3011016846
endloop
endfacet
facet normal 0.454325556755 -0.734108805656 0.504650890827
outer loop
vertex 28.0656585693 -18.8052406311 -11.8532218933
vertex 25.4786262512 -20.8968772888 -12.5668544769
vertex 28.0315361023 -20.970539093 -14.9723367691
endloop
endfacet
facet normal -0.662262558937 0.726725637913 -0.182423129678
outer loop
vertex -40.8275947571 -23.3005943298 -14.6473760605
vertex -40.8546943665 -22.3679275513 -10.8335094452
vertex -39.0212020874 -21.3856563568 -13.5766305923
endloop
endfacet
facet normal -0.283444702625 0.416839152575 -0.863657474518
outer loop
vertex -40.8546943665 -22.3679275513 -10.8335094452
vertex -40.7958488464 -18.6466445923 -9.05676746368
vertex -39.0028572083 -20.547700882 -10.5627450943
endloop
endfacet
facet normal -0.61706584692 -0.70452350378 0.350537359715
outer loop
vertex -40.5889358521 -15.7424726486 -11.8556442261
vertex -38.9421005249 -18.3315525055 -14.1602697372
vertex -38.9573173523 -16.8929138184 -11.2956342697
endloop
endfacet
facet normal -0.28023865819 -0.924407243729 0.258722871542
outer loop
vertex -42.5418395996 -20.2240066528 -13.2395067215
vertex -39.0212020874 -21.3856563568 -13.5766305923
vertex -39.0028572083 -20.547700882 -10.5627450943
endloop
endfacet
facet normal -0.152959808707 -0.181670606136 -0.971390247345
outer loop
vertex -42.5418395996 -20.2240066528 -13.2395067215
vertex -38.9421005249 -18.3315525055 -14.1602697372
vertex -39.0212020874 -21.3856563568 -13.5766305923
endloop
endfacet
facet normal -0.125201627612 -0.666428864002 -0.734981060028
outer loop
vertex -36.342628479 -20.6058197021 -17.8548049927
vertex -36.4277114868 -24.8328037262 -14.0075845718
vertex -40.8275947571 -23.3005943298 -14.6473760605
endloop
endfacet
facet normal -0.353010833263 -0.870437920094 0.343105226755
outer loop
vertex -36.4277114868 -24.8328037262 -14.0075845718
vertex -36.419380188 -22.3575553894 -7.71945619583
vertex -40.8275947571 -23.3005943298 -14.6473760605
endloop
endfacet
facet normal -0.0165410917252 0.321660637856 0.946710526943
outer loop
vertex -36.419380188 -22.3575553894 -7.71945619583
vertex -35.9947280884 -15.1843585968 -10.1492509842
vertex -40.7958488464 -18.6466445923 -9.05676746368
endloop
endfacet
facet normal 0.124516434968 -0.991678595543 -0.0326978117228
outer loop
vertex -1.74847197533 -20.581287384 70.7930374146
vertex -0.0367951393127 -19.6224517822 48.2312355042
vertex 5.8577246666 -18.8806190491 48.1794204712
endloop
endfacet
facet normal 0.119428828359 -0.992244839668 -0.0344520770013
outer loop
vertex 5.8577246666 -18.8806190491 48.1794204712
vertex 2.25230503082 -20.1156597137 71.2513885498
vertex -1.74847197533 -20.581287384 70.7930374146
endloop
endfacet
facet normal 0.0311977993697 0.997298121452 -0.0665063634515
outer loop
vertex 7.82073974609 -15.8654794693 -15.1389169693
vertex 0.0247936248779 -17.8249568939 -48.1793899536
vertex -22.7496414185 -14.998799324 -16.483001709
endloop
endfacet
facet normal 0.624281227589 0.192303687334 0.757160663605
outer loop
vertex 27.3631095886 -22.6357135773 -10.3011016846
vertex 28.0656585693 -18.8052406311 -11.8532218933
vertex 25.9829063416 -18.651386261 -10.1750593185
endloop
endfacet
facet normal 0.0170750468969 0.999853849411 -0.000877859303728
outer loop
vertex -22.7496414185 -14.998799324 -16.483001709
vertex -36.003818512 -14.7469453812 12.5660133362
vertex -22.721540451 -14.9703512192 16.4643287659
endloop
endfacet
facet normal -0.991377532482 0.079076230526 -0.104486346245
outer loop
vertex -22.7496414185 -14.998799324 -16.483001709
vertex -17.2527046204 -20.5689201355 -72.8540039062
vertex -22.8082733154 -18.6848907471 -18.7163505554
endloop
endfacet
facet normal 0.637856602669 0.762617170811 -0.107489690185
outer loop
vertex 7.82073974609 -15.8654794693 -15.1389169693
vertex 9.93340873718 -18.0132369995 -17.8399868011
vertex 5.85771894455 -18.880613327 -48.1794776917
endloop
endfacet
facet normal 0.0198092237115 -0.999467909336 0.0259127933532
outer loop
vertex 9.93340873718 -18.0132369995 -17.8399868011
vertex -22.8082733154 -18.6848907471 -18.7163505554
vertex 5.85771894455 -18.880613327 -48.1794776917
endloop
endfacet
facet normal -0.00637967558578 -0.999057173729 -0.042942263186
outer loop
vertex -1.74847197533 -20.581287384 70.7930374146
vertex -17.2500457764 -20.572435379 72.8900909424
vertex -0.0367951393127 -19.6224517822 48.2312355042
endloop
endfacet
facet normal 0.00459655374289 -0.999366521835 -0.0352918952703
outer loop
vertex -22.8082771301 -18.6848888397 18.7163448334
vertex -0.0367951393127 -19.6224517822 48.2312355042
vertex -17.2500457764 -20.572435379 72.8900909424
endloop
endfacet
facet normal -0.50431483984 -0.107786543667 -0.856766402721
outer loop
vertex -20.5132865906 -22.1984634399 75.6580505371
vertex -21.8192863464 -17.1958847046 75.7974395752
vertex -16.8803462982 -18.0177612305 72.9936523438
endloop
endfacet
facet normal -0.677753925323 0.127437844872 -0.724161028862
outer loop
vertex -16.8803462982 -18.0177612305 72.9936523438
vertex -17.2500457764 -20.572435379 72.8900909424
vertex -20.5132865906 -22.1984634399 75.6580505371
endloop
endfacet
facet normal 0.219071730971 0.971888303757 0.0862590521574
outer loop
vertex 5.8577246666 -18.8806190491 48.1794204712
vertex -1.70334148407 -19.1850376129 70.8121261597
vertex 2.25230503082 -20.1156597137 71.2513885498
endloop
endfacet
facet normal -0.0331727862358 0.676452994347 0.735738396645
outer loop
vertex 0.930033624172 -20.0580711365 79.4547195435
vertex 2.87453842163 -16.8108711243 76.556854248
vertex -21.8192863464 -17.1958847046 75.7974395752
endloop
endfacet
facet normal -0.042805172503 0.640037059784 0.767150759697
outer loop
vertex -21.8192863464 -17.1958847046 75.7974395752
vertex -22.055557251 -20.0037593842 78.1268768311
vertex 0.930033624172 -20.0580711365 79.4547195435
endloop
endfacet
facet normal 0.375695705414 0.481615126133 0.79176992178
outer loop
vertex 8.06712436676 -20.2768573761 76.2012481689
vertex 2.87453842163 -16.8108711243 76.556854248
vertex 0.930033624172 -20.0580711365 79.4547195435
endloop
endfacet
facet normal 0.303326576948 -0.637451946735 0.708271145821
outer loop
vertex 0.930033624172 -20.0580711365 79.4547195435
vertex 1.1798324585 -23.4441490173 76.3002319336
vertex 8.06712436676 -20.2768573761 76.2012481689
endloop
endfacet
facet normal 0.177619412541 0.981422066689 0.0725392475724
outer loop
vertex 0.0247869491577 -17.824962616 48.179397583
vertex -1.70334148407 -19.1850376129 70.8121261597
vertex 5.8577246666 -18.8806190491 48.1794204712
endloop
endfacet
facet normal -0.0629050284624 -0.765090107918 0.640843391418
outer loop
vertex 1.1798324585 -23.4441490173 76.3002319336
vertex -22.055557251 -20.0037593842 78.1268768311
vertex -20.5132865906 -22.1984634399 75.6580505371
endloop
endfacet
facet normal -0.0059687430039 0.956717312336 -0.290957570076
outer loop
vertex -16.8803462982 -18.0177612305 72.9936523438
vertex -21.8192863464 -17.1958847046 75.7974395752
vertex 2.87453842163 -16.8108711243 76.556854248
endloop
endfacet
facet normal -0.0332183875144 -0.189733296633 0.981273591518
outer loop
vertex -36.5468482971 -16.6355209351 17.0117969513
vertex -36.4885368347 -24.2246303558 15.5463857651
vertex -4.46946716309 -25.4777984619 16.3879985809
endloop
endfacet
facet normal -0.190395668149 -0.736495554447 0.649094581604
outer loop
vertex -4.46946716309 -25.4777984619 16.3879985809
vertex -22.8082771301 -18.6848888397 18.7163448334
vertex -36.5468482971 -16.6355209351 17.0117969513
endloop
endfacet
facet normal -0.214486628771 -0.0441439934075 -0.975728809834
outer loop
vertex -36.32447052 -23.29063797 8.81445407867
vertex -40.1881866455 -23.9033660889 9.69150447845
vertex -40.2795791626 -15.7331619263 9.34195804596
endloop
endfacet
facet normal -0.341324239969 -0.113501004875 -0.933067560196
outer loop
vertex -40.2795791626 -15.7331619263 9.34195804596
vertex -36.0211257935 -17.4168567657 7.98898506165
vertex -36.32447052 -23.29063797 8.81445407867
endloop
endfacet
facet normal -0.0958287864923 0.920319378376 0.379248052835
outer loop
vertex -36.003818512 -14.7469453812 12.5660133362
vertex -36.5468482971 -16.6355209351 17.0117969513
vertex -22.721540451 -14.9703512192 16.4643287659
endloop
endfacet
facet normal -0.0286388508976 0.518709719181 0.854470670223
outer loop
vertex -22.721540451 -14.9703512192 16.4643287659
vertex -36.5468482971 -16.6355209351 17.0117969513
vertex -22.8082771301 -18.6848888397 18.7163448334
endloop
endfacet
facet normal 0.122604928911 -0.84700012207 0.517260968685
outer loop
vertex 27.3048171997 -23.598657608 11.9336614609
vertex 27.9019947052 -21.7010688782 14.8993692398
vertex -4.46946716309 -25.4777984619 16.3879985809
endloop
endfacet
facet normal 0.0596354678273 -0.998211026192 0.00428684521466
outer loop
vertex 27.3048171997 -23.598657608 11.9336614609
vertex -4.46946716309 -25.4777984619 16.3879985809
vertex 10.0948486328 -24.7446746826 -15.50852108
endloop
endfacet
facet normal -0.829817473888 -0.0331149585545 -0.557051360607
outer loop
vertex -40.5711364746 -17.8181419373 9.90022468567
vertex -40.2795791626 -15.7331619263 9.34195804596
vertex -40.1881866455 -23.9033660889 9.69150447845
endloop
endfacet
facet normal -0.50529718399 0.79345625639 0.339266806841
outer loop
vertex -40.6716308594 -19.0398254395 16.4914779663
vertex -36.5468482971 -16.6355209351 17.0117969513
vertex -40.2795791626 -15.7331619263 9.34195804596
endloop
endfacet
facet normal -0.717022240162 0.650714635849 0.249898999929
outer loop
vertex -39.3706588745 -18.1033287048 13.2612695694
vertex -39.0072097778 -18.438999176 15.1781549454
vertex -38.9572486877 -16.8929138184 11.2956132889
endloop
endfacet
facet normal 0.0714384689927 0.966714680195 0.245681524277
outer loop
vertex 27.9971313477 -20.564081192 10.3978490829
vertex 25.4789085388 -20.9379081726 12.6010370255
vertex 27.9019947052 -21.7010688782 14.8993692398
endloop
endfacet
facet normal -0.322791069746 0.419875115156 -0.848239898682
outer loop
vertex -40.8749046326 -23.3564872742 13.4547529221
vertex -39.0072097778 -18.438999176 15.1781549454
vertex -39.0080184937 -21.4816207886 13.6723775864
endloop
endfacet
facet normal -0.705662846565 0.679257035255 0.201618209481
outer loop
vertex -40.8749046326 -23.3564872742 13.4547529221
vertex -39.0080184937 -21.4816207886 13.6723775864
vertex -39.0007171631 -20.5515956879 10.5646543503
endloop
endfacet
facet normal -0.59579628706 -0.15053422749 0.788901984692
outer loop
vertex -40.5711364746 -17.8181419373 9.90022468567
vertex -39.0007171631 -20.5515956879 10.5646543503
vertex -38.9572486877 -16.8929138184 11.2956132889
endloop
endfacet
facet normal 0.0438630580902 -0.928346395493 -0.369119137526
outer loop
vertex -38.9572486877 -16.8929138184 11.2956132889
vertex -39.0072097778 -18.438999176 15.1781549454
vertex -40.6716308594 -19.0398254395 16.4914779663
endloop
endfacet
facet normal -0.249022856355 -0.927679717541 -0.278204798698
outer loop
vertex -39.0007171631 -20.5515956879 10.5646543503
vertex -39.0080184937 -21.4816207886 13.6723775864
vertex -42.1062316895 -20.562713623 13.3814888
endloop
endfacet
facet normal -0.368812918663 -0.834239006042 -0.409905195236
outer loop
vertex -42.4856147766 -19.4677639008 11.4943847656
vertex -39.0007171631 -20.5515956879 10.5646543503
vertex -42.1062316895 -20.562713623 13.3814888
endloop
endfacet
facet normal 0.0530489049852 0.742945730686 -0.667246103287
outer loop
vertex -39.0007171631 -20.5515956879 10.5646543503
vertex -42.4856147766 -19.4677639008 11.4943847656
vertex -39.3706588745 -18.1033287048 13.2612695694
endloop
endfacet
facet normal -0.0592000931501 0.11432351172 0.991678118706
outer loop
vertex -39.0080184937 -21.4816207886 13.6723775864
vertex -39.3706588745 -18.1033287048 13.2612695694
vertex -42.1062316895 -20.562713623 13.3814888
endloop
endfacet
facet normal -0.982956528664 0.0471774898469 -0.177681401372
outer loop
vertex -39.0007171631 -20.5515956879 10.5646543503
vertex -39.3706588745 -18.1033287048 13.2612695694
vertex -38.9572486877 -16.8929138184 11.2956132889
endloop
endfacet
facet normal -0.981584668159 -0.0845203921199 0.171311974525
outer loop
vertex -39.3706588745 -18.1033287048 13.2612695694
vertex -39.0080184937 -21.4816207886 13.6723775864
vertex -39.0072097778 -18.438999176 15.1781549454
endloop
endfacet
facet normal -0.451479524374 -0.49907836318 0.739653408527
outer loop
vertex -36.4885368347 -24.2246303558 15.5463857651
vertex -40.6716308594 -19.0398254395 16.4914779663
vertex -40.8749046326 -23.3564872742 13.4547529221
endloop
endfacet
facet normal -0.237589001656 -0.966500520706 0.0970991402864
outer loop
vertex -36.4885368347 -24.2246303558 15.5463857651
vertex -40.8749046326 -23.3564872742 13.4547529221
vertex -40.1881866455 -23.9033660889 9.69150447845
endloop
endfacet
facet normal 0.944918930531 0.327303558588 0.000754292239435
outer loop
vertex 27.3631095886 -22.6357135773 -10.3011016846
vertex 25.9829063416 -18.651386261 -10.1750593185
vertex 25.9883804321 -18.7140750885 10.1687173843
endloop
endfacet
facet normal 0.964171171188 0.26491111517 0.0140005303547
outer loop
vertex 25.9883804321 -18.7140750885 10.1687173843
vertex 27.3048171997 -23.598657608 11.9336614609
vertex 27.3631095886 -22.6357135773 -10.3011016846
endloop
endfacet
facet normal -0.428463935852 0.849283337593 0.308441698551
outer loop
vertex -36.003818512 -14.7469453812 12.5660133362
vertex -40.2795791626 -15.7331619263 9.34195804596
vertex -36.5468482971 -16.6355209351 17.0117969513
endloop
endfacet
facet normal 0.659808933735 0.675711035728 -0.328735113144
outer loop
vertex 27.9971313477 -20.564081192 10.3978490829
vertex 25.9883804321 -18.7140750885 10.1687173843
vertex 28.0377063751 -19.0002937317 13.6936235428
endloop
endfacet
facet normal -0.999956309795 0.00906739290804 -0.00224462687038
outer loop
vertex -36.419380188 -22.3575553894 -7.71945619583
vertex -36.4277114868 -24.8328037262 -14.0075845718
vertex -36.4885368347 -24.2246303558 15.5463857651
endloop
endfacet
facet normal -0.938840568066 0.343459755182 0.0247730538249
outer loop
vertex -36.4885368347 -24.2246303558 15.5463857651
vertex -36.32447052 -23.29063797 8.81445407867
vertex -36.419380188 -22.3575553894 -7.71945619583
endloop
endfacet
facet normal 0.0283779017627 0.999596893787 -0.000887316302396
outer loop
vertex -22.721540451 -14.9703512192 16.4643287659
vertex 7.82073974609 -15.8654794693 -15.1389169693
vertex -22.7496414185 -14.998799324 -16.483001709
endloop
endfacet
facet normal 0.096289396286 0.995348751545 0.00304133165628
outer loop
vertex 25.9829063416 -18.651386261 -10.1750593185
vertex 10.3323488235 -17.2229347229 17.8318576813
vertex 25.9883804321 -18.7140750885 10.1687173843
endloop
endfacet
facet normal -0.0396374240518 -0.999004304409 0.0204762574285
outer loop
vertex -36.4277114868 -24.8328037262 -14.0075845718
vertex -4.46946716309 -25.4777984619 16.3879985809
vertex -36.4885368347 -24.2246303558 15.5463857651
endloop
endfacet
facet normal -0.984394013882 0.138031482697 0.109158784151
outer loop
vertex -16.8803462982 -18.0177612305 72.9936523438
vertex -22.721540451 -14.9703512192 16.4643287659
vertex -17.2500457764 -20.572435379 72.8900909424
endloop
endfacet
facet normal 0.177521303296 0.980880022049 0.0797536298633
outer loop
vertex 5.8577246666 -18.8806190491 48.1794204712
vertex 10.3323488235 -17.2229347229 17.8318576813
vertex 0.0247869491577 -17.824962616 48.179397583
endloop
endfacet
facet normal 0.139809951186 0.840981066227 0.522689163685
outer loop
vertex 2.25230503082 -20.1156597137 71.2513885498
vertex -1.70334148407 -19.1850376129 70.8121261597
vertex -16.8803462982 -18.0177612305 72.9936523438
endloop
endfacet
facet normal -0.0326666384935 -0.844476282597 -0.534595906734
outer loop
vertex 1.1798324585 -23.4441490173 76.3002319336
vertex -20.5132865906 -22.1984634399 75.6580505371
vertex -17.2500457764 -20.572435379 72.8900909424
endloop
endfacet
facet normal 0.0442837588489 0.845625519753 -0.53193628788
outer loop
vertex -16.8803462982 -18.0177612305 72.9936523438
vertex 2.87453842163 -16.8108711243 76.556854248
vertex 2.25230503082 -20.1156597137 71.2513885498
endloop
endfacet
facet normal -0.480011671782 0.84281462431 -0.243418052793
outer loop
vertex -7.58998298645 -0.711270570755 -16.0639400482
vertex -6.17209911346 -0.695962309837 -18.8069534302
vertex -11.2520294189 -3.00940489769 -16.7996082306
endloop
endfacet
facet normal 0.546003341675 -0.83109074831 -0.105680376291
outer loop
vertex -8.48160362244 -5.24983453751 -15.9586896896
vertex -5.15644454956 -3.04853582382 -16.0905303955
vertex -5.50916337967 -3.57497477531 -13.7728509903
endloop
endfacet
facet normal 0.436177313328 -0.898067951202 0.0567736588418
outer loop
vertex -5.85411167145 -3.56619310379 -10.9837884903
vertex -8.62102985382 -4.90464162827 -10.8983840942
vertex -5.50916337967 -3.57497477531 -13.7728509903
endloop
endfacet
facet normal 0.651711761951 -0.637766480446 0.410518854856
outer loop
vertex -5.50916337967 -3.57497477531 -13.7728509903
vertex -8.62102985382 -4.90464162827 -10.8983840942
vertex -8.20562744141 -6.21646642685 -13.5958518982
endloop
endfacet
facet normal -0.551098465919 0.808193862438 0.207637369633
outer loop
vertex -8.54407596588 -0.956934332848 -13.636631012
vertex -11.2519807816 -3.00941991806 -12.8348436356
vertex -7.39317035675 -0.866390824318 -10.9343881607
endloop
endfacet
facet normal -0.266615182161 -0.0246268957853 -0.963488399982
outer loop
vertex -8.54407596588 -0.956934332848 -13.636631012
vertex -8.20562744141 -6.21646642685 -13.5958518982
vertex -11.2519807816 -3.00941991806 -12.8348436356
endloop
endfacet
facet normal 0.65650588274 0.67982840538 0.326853960752
outer loop
vertex -5.15644454956 -3.04853582382 -16.0905303955
vertex -7.58998298645 -0.711270570755 -16.0639400482
vertex -8.54407596588 -0.956934332848 -13.636631012
endloop
endfacet
facet normal -0.922459125519 0.173219308257 -0.345056563616
outer loop
vertex -7.58998298645 -0.711270570755 -16.0639400482
vertex -8.48160362244 -5.24983453751 -15.9586896896
vertex -8.54407596588 -0.956934332848 -13.636631012
endloop
endfacet
facet normal -0.993911862373 -0.0632586479187 0.0902086719871
outer loop
vertex -8.20562744141 -6.21646642685 -13.5958518982
vertex -8.54407596588 -0.956934332848 -13.636631012
vertex -8.48160362244 -5.24983453751 -15.9586896896
endloop
endfacet
facet normal 0.807759523392 -0.183107107878 0.560353696346
outer loop
vertex -8.73572254181 -17.0155544281 -13.7701377869
vertex -7.36031341553 -17.1542243958 -15.7981271744
vertex -6.83758020401 -7.7058634758 -13.4642114639
endloop
endfacet
facet normal -0.508979260921 0.0755983889103 0.857452630997
outer loop
vertex -9.25525856018 -8.53974628448 -14.8258104324
vertex -8.73572254181 -17.0155544281 -13.7701377869
vertex -6.83758020401 -7.7058634758 -13.4642114639
endloop
endfacet
facet normal -0.825472772121 -0.119311973453 -0.551687717438
outer loop
vertex -7.36031341553 -17.1542243958 -15.7981271744
vertex -8.73572254181 -17.0155544281 -13.7701377869
vertex -9.25525856018 -8.53974628448 -14.8258104324
endloop
endfacet
facet normal -0.597470164299 -0.311719298363 -0.738823652267
outer loop
vertex -11.2520294189 -3.00940489769 -16.7996082306
vertex -9.40566253662 -2.0787832737 -18.6853656769
vertex -7.56401014328 -5.54451370239 -18.712430954
endloop
endfacet
facet normal -0.50680488348 0.161647111177 0.846769809723
outer loop
vertex -11.2519807816 -3.00941991806 -12.8348436356
vertex -8.62102985382 -4.90464162827 -10.8983840942
vertex -7.39317035675 -0.866390824318 -10.9343881607
endloop
endfacet
facet normal -0.647737026215 0.171478480101 -0.742315173149
outer loop
vertex -7.56401014328 -5.54451370239 -18.712430954
vertex -7.59003448486 -3.09014463425 -18.122751236
vertex -6.17209911346 -0.695962309837 -18.8069534302
endloop
endfacet
facet normal 0.0311178583652 -0.000550023920368 0.999515593052
outer loop
vertex -5.85411167145 -3.56619310379 -10.9837884903
vertex -7.39317035675 -0.866390824318 -10.9343881607
vertex -8.62102985382 -4.90464162827 -10.8983840942
endloop
endfacet
facet normal 0.888891816139 -0.310985058546 -0.336391896009
outer loop
vertex -7.70744466782 -6.97550964355 -16.4379615784
vertex -5.50916337967 -3.57497477531 -13.7728509903
vertex -6.83758020401 -7.7058634758 -13.4642114639
endloop
endfacet
facet normal -0.0109871663153 0.0780166387558 0.996891438961
outer loop
vertex -5.50916337967 -3.57497477531 -13.7728509903
vertex -8.20562744141 -6.21646642685 -13.5958518982
vertex -6.83758020401 -7.7058634758 -13.4642114639
endloop
endfacet
facet normal 0.84019857645 0.529803276062 -0.11564990133
outer loop
vertex -7.70744466782 -6.97550964355 -16.4379615784
vertex -6.83758020401 -7.7058634758 -13.4642114639
vertex -6.58903455734 -8.63227176666 -15.9024877548
endloop
endfacet
facet normal -0.393997579813 -0.284655660391 0.873920500278
outer loop
vertex -8.20562744141 -6.21646642685 -13.5958518982
vertex -9.25525856018 -8.53974628448 -14.8258104324
vertex -6.83758020401 -7.7058634758 -13.4642114639
endloop
endfacet
facet normal -0.0161288455129 -0.999867677689 0.00206988467835
outer loop
vertex -9.47555923462 -16.6367435455 -19.3694458008
vertex -6.4931268692 -16.6843986511 -19.1498737335
vertex -8.14562892914 -16.6484470367 -14.6592559814
endloop
endfacet
facet normal -0.302213519812 0.922214984894 0.241218730807
outer loop
vertex -11.1552648544 -3.4430065155 -19.9012470245
vertex -10.8155460358 -3.77632880211 -18.2012844086
vertex -7.70978975296 -2.78532624245 -18.0989646912
endloop
endfacet
facet normal 0.00773297529668 -0.0747194364667 0.997174620628
outer loop
vertex -7.70978975296 -2.78532624245 -18.0989646912
vertex -6.4931268692 -16.6843986511 -19.1498737335
vertex -4.37669897079 -3.99249124527 -18.2152690887
endloop
endfacet
facet normal 0.988971710205 0.095151424408 -0.113495275378
outer loop
vertex -6.4931268692 -16.6843986511 -19.1498737335
vertex -7.70978975296 -2.78532624245 -18.0989646912
vertex -7.31079769135 -2.77498149872 -14.613574028
endloop
endfacet
facet normal 0.936771869659 -0.0575064904988 0.345183163881
outer loop
vertex -6.4931268692 -16.6843986511 -19.1498737335
vertex -7.31079769135 -2.77498149872 -14.613574028
vertex -8.14562892914 -16.6484470367 -14.6592559814
endloop
endfacet
facet normal -0.977988362312 -0.117560148239 0.172389656305
outer loop
vertex -9.47555923462 -16.6367435455 -19.3694458008
vertex -10.8155460358 -3.77632880211 -18.2012844086
vertex -11.1552648544 -3.4430065155 -19.9012470245
endloop
endfacet
facet normal -0.957747578621 0.0972672179341 0.270663291216
outer loop
vertex -9.47555923462 -16.6367435455 -19.3694458008
vertex -8.14562892914 -16.6484470367 -14.6592559814
vertex -7.70978975296 -2.78532624245 -18.0989646912
endloop
endfacet
facet normal 0.0826848521829 0.929987967014 0.358169794083
outer loop
vertex -9.91741371155 -12.6606111526 -17.8930130005
vertex -5.72666549683 -15.6543235779 -11.0872936249
vertex -5.90359592438 -12.9906682968 -17.9626255035
endloop
endfacet
facet normal -0.546131193638 -0.753597676754 -0.365829646587
outer loop
vertex -10.2516498566 -15.6877326965 -11.1582841873
vertex -9.91741371155 -12.6606111526 -17.8930130005
vertex -8.01735973358 -16.9775905609 -11.8366937637
endloop
endfacet
facet normal -0.0774457082152 -0.823181569576 -0.562471628189
outer loop
vertex -9.91741371155 -12.6606111526 -17.8930130005
vertex -5.90359592438 -12.9906682968 -17.9626255035
vertex -8.01735973358 -16.9775905609 -11.8366937637
endloop
endfacet
facet normal 0.819063901901 -0.245247170329 0.518640756607
outer loop
vertex -6.17208957672 -0.69595015049 18.8069496155
vertex -7.56401443481 -5.54453468323 18.7124176025
vertex -5.15641069412 -3.04857778549 16.090461731
endloop
endfacet
facet normal -0.219086930156 0.0369828045368 -0.975004255772
outer loop
vertex -7.58992242813 -0.711230516434 16.0638580322
vertex -8.26259422302 -6.1334939003 16.0093383789
vertex -11.2520008087 -3.00940704346 16.7995681763
endloop
endfacet
facet normal 0.702930390835 -0.709198236465 0.0540996193886
outer loop
vertex -8.26259422302 -6.1334939003 16.0093383789
vertex -5.50916719437 -3.57501101494 13.7728433609
vertex -5.15641069412 -3.04857778549 16.090461731
endloop
endfacet
facet normal 0.618114054203 -0.70794826746 -0.341678500175
outer loop
vertex -5.50916719437 -3.57501101494 13.7728433609
vertex -7.63038158417 -5.34323692322 13.5991725922
vertex -8.62100791931 -4.90466737747 10.8983736038
endloop
endfacet
facet normal -0.242232516408 -0.0587289519608 0.968439161777
outer loop
vertex -8.54407596588 -0.956935763359 13.636631012
vertex -11.2519369125 -3.00940656662 12.834854126
vertex -7.63038158417 -5.34323692322 13.5991725922
endloop
endfacet
facet normal 0.656513154507 0.679802238941 -0.326893419027
outer loop
vertex -5.15641069412 -3.04857778549 16.090461731
vertex -8.54407596588 -0.956935763359 13.636631012
vertex -7.58992242813 -0.711230516434 16.0638580322
endloop
endfacet
facet normal -0.928650796413 0.111649043858 0.353754460812
outer loop
vertex -7.58992242813 -0.711230516434 16.0638580322
vertex -8.54407596588 -0.956935763359 13.636631012
vertex -8.26259422302 -6.1334939003 16.0093383789
endloop
endfacet
facet normal -0.932131767273 -0.191544592381 -0.307312697172
outer loop
vertex -7.63038158417 -5.34323692322 13.5991725922
vertex -8.26259422302 -6.1334939003 16.0093383789
vertex -8.54407596588 -0.956935763359 13.636631012
endloop
endfacet
facet normal 0.539108753204 -0.197874158621 0.818662106991
outer loop
vertex -9.12082195282 -17.0432052612 15.5603647232
vertex -6.91320562363 -17.10729599 14.0911054611
vertex -6.59438371658 -8.62985706329 15.9301872253
endloop
endfacet
facet normal -0.552454710007 -0.120103903115 -0.824844837189
outer loop
vertex -9.12082195282 -17.0432052612 15.5603647232
vertex -9.43490982056 -7.82790231705 14.4289102554
vertex -6.91320562363 -17.10729599 14.0911054611
endloop
endfacet
facet normal 0.397703379393 0.218299418688 0.891166269779
outer loop
vertex -9.40567588806 -2.07878899574 18.6853351593
vertex -7.56401443481 -5.54453468323 18.7124176025
vertex -7.59002923965 -3.09014105797 18.122800827
endloop
endfacet
facet normal 0.646467268467 -0.0292925927788 0.762379229069
outer loop
vertex -5.50916719437 -3.57501101494 13.7728433609
vertex -8.26259422302 -6.1334939003 16.0093383789
vertex -6.12929296494 -7.55049467087 14.1459379196
endloop
endfacet
facet normal 0.179695099592 -0.119665659964 -0.976416885853
outer loop
vertex -5.50916719437 -3.57501101494 13.7728433609
vertex -6.12929296494 -7.55049467087 14.1459379196
vertex -7.63038158417 -5.34323692322 13.5991725922
endloop
endfacet
facet normal -0.513562858105 -0.367771267891 0.775240242481
outer loop
vertex -8.26259422302 -6.1334939003 16.0093383789
vertex -9.43490982056 -7.82790231705 14.4289102554
vertex -6.59438371658 -8.62985706329 15.9301872253
endloop
endfacet
facet normal -0.0161318816245 -0.999867677689 -0.00206341804005
outer loop
vertex -9.47566127777 -16.6367282867 19.3694782257
vertex -8.14562416077 -16.6484661102 14.6593751907
vertex -6.49303817749 -16.6843967438 19.1498985291
endloop
endfacet
facet normal -0.248762503266 0.966343522072 -0.0655535459518
outer loop
vertex -10.835231781 -3.46593546867 19.9263629913
vertex -7.70982265472 -2.78535103798 18.0987377167
vertex -11.2439460754 -3.68376469612 18.2662677765
endloop
endfacet
facet normal -0.0247839596123 -0.0881957411766 -0.995794773102
outer loop
vertex -9.47566127777 -16.6367282867 19.3694782257
vertex -11.2439460754 -3.68376469612 18.2662677765
vertex -7.70982265472 -2.78535103798 18.0987377167
endloop
endfacet
facet normal -0.961681008339 -0.109891138971 0.251184552908
outer loop
vertex -11.2439460754 -3.68376469612 18.2662677765
vertex -9.47566127777 -16.6367282867 19.3694782257
vertex -10.835231781 -3.46593546867 19.9263629913
endloop
endfacet
facet normal 0.936764121056 -0.0575057938695 -0.345204502344
outer loop
vertex -6.49303817749 -16.6843967438 19.1498985291
vertex -8.14562416077 -16.6484661102 14.6593751907
vertex -7.31077766418 -2.77492070198 14.6137332916
endloop
endfacet
facet normal 0.406327724457 -0.823297560215 0.396331727505
outer loop
vertex -8.0174369812 -16.980260849 11.8422117233
vertex -5.73975038528 -16.1056938171 11.3238134384
vertex -5.90359735489 -12.990696907 17.9625511169
endloop
endfacet
facet normal -0.0774303078651 -0.822773456573 0.56307053566
outer loop
vertex -9.92069339752 -12.6606092453 17.8924770355
vertex -8.0174369812 -16.980260849 11.8422117233
vertex -5.90359735489 -12.990696907 17.9625511169
endloop
endfacet
facet normal 0.8077647686 0.46705904603 -0.359683036804
outer loop
vertex -8.54407596588 -0.956934332848 -13.636631012
vertex -7.39317035675 -0.866390824318 -10.9343881607
vertex -5.85411167145 -3.56619310379 -10.9837884903
endloop
endfacet
facet normal 0.653192520142 0.753120660782 0.0784148946404
outer loop
vertex -5.85411167145 -3.56619310379 -10.9837884903
vertex -5.50916337967 -3.57497477531 -13.7728509903
vertex -8.54407596588 -0.956934332848 -13.636631012
endloop
endfacet
facet normal -0.0102059235796 0.0296992044896 -0.999506771564
outer loop
vertex -53.3023376465 -14.8930463791 -5.08048677444
vertex 38.8779754639 -24.5066833496 -6.30739593506
vertex -48.0768432617 -24.1343383789 -5.40843868256
endloop
endfacet
facet normal -0.0246384888887 -0.930983483791 -0.36422881484
outer loop
vertex -48.0768432617 -24.1343383789 -5.40843868256
vertex 51.2618598938 -28.3233604431 -1.42096352577
vertex -45.7551269531 -27.0041503906 1.76985573769
endloop
endfacet
facet normal 0.0147966854274 0.994382143021 -0.104809999466
outer loop
vertex -45.9941940308 -14.0013828278 4.41091632843
vertex 38.9336547852 -15.7460021973 -0.151333540678
vertex -53.3023376465 -14.8930463791 -5.08048677444
endloop
endfacet
facet normal 0.164131253958 0.856654584408 -0.489084750414
outer loop
vertex 76.9580917358 -23.7434520721 -1.39867317677
vertex 37.6138114929 -18.453792572 -5.33707046509
vertex 38.9336547852 -15.7460021973 -0.151333540678
endloop
endfacet
facet normal 0.124811500311 -0.696835577488 -0.706287741661
outer loop
vertex 51.2618598938 -28.3233604431 -1.42096352577
vertex 76.9580917358 -23.7434520721 -1.39867317677
vertex 71.0802001953 -26.2147674561 0.000864313566126
endloop
endfacet
facet normal 0.371392160654 -0.925487875938 -0.074431926012
outer loop
vertex 71.0802001953 -26.2147674561 0.000864313566126
vertex 76.9580917358 -23.7434520721 -1.39867317677
vertex 76.7766342163 -24.0518112183 1.52999579906
endloop
endfacet
facet normal -0.210561722517 -0.939538836479 0.270056426525
outer loop
vertex -75.9911422729 -19.7940864563 3.27911567688
vertex -76.8836364746 -21.0445289612 -1.76709842682
vertex -45.7551269531 -27.0041503906 1.76985573769
endloop
endfacet
facet normal -0.16861204803 0.747636675835 0.642346799374
outer loop
vertex -75.9911422729 -19.7940864563 3.27911567688
vertex -45.9941940308 -14.0013828278 4.41091632843
vertex -76.4248504639 -15.8807964325 -1.38946795464
endloop
endfacet
facet normal 0.000249192962656 -0.21787942946 0.975975632668
outer loop
vertex 11.7322998047 -27.2501068115 5.21154689789
vertex 25.0950927734 -19.8421554565 6.86190605164
vertex -49.5054512024 -20.6875343323 6.6922287941
endloop
endfacet
facet normal 0.0475517846644 0.818823873997 0.572071790695
outer loop
vertex 25.0950927734 -19.8421554565 6.86190605164
vertex 38.9336547852 -15.7460021973 -0.151333540678
vertex -45.9941940308 -14.0013828278 4.41091632843
endloop
endfacet
facet normal 0.0732103809714 -0.487165600061 0.87023550272
outer loop
vertex 51.4550704956 -28.1150436401 1.38559126854
vertex 76.7766342163 -24.0518112183 1.52999579906
vertex 11.7322998047 -27.2501068115 5.21154689789
endloop
endfacet
facet normal 0.118739880621 0.236243978143 0.964411556721
outer loop
vertex 76.7766342163 -24.0518112183 1.52999579906
vertex 75.1797180176 -21.7991943359 1.17480528355
vertex 25.0950927734 -19.8421554565 6.86190605164
endloop
endfacet
facet normal 0.071308426559 -0.00963011290878 0.997407853603
outer loop
vertex 71.0802001953 -26.2147674561 0.000864313566126
vertex 51.4550704956 -28.1150436401 1.38559126854
vertex 68.5346603394 -44.6795845032 0.00457515474409
endloop
endfacet
facet normal -0.947608947754 -0.307064265013 0.0880275294185
outer loop
vertex 51.4550704956 -28.1150436401 1.38559126854
vertex 51.2618598938 -28.3233604431 -1.42096352577
vertex 56.7494697571 -44.8506393433 0.000991380773485
endloop
endfacet
facet normal 0.000889625342097 -0.0821725279093 0.996617674828
outer loop
vertex 56.7494697571 -44.8506393433 0.000991380773485
vertex 68.5346603394 -44.6795845032 0.00457515474409
vertex 51.4550704956 -28.1150436401 1.38559126854
endloop
endfacet
facet normal 0.802343249321 0.586365103722 0.111450769007
outer loop
vertex 76.7766342163 -24.0518112183 1.52999579906
vertex 76.9580917358 -23.7434520721 -1.39867317677
vertex 75.1797180176 -21.7991943359 1.17480528355
endloop
endfacet
facet normal 0.917424678802 -0.397874385118 0.00528124207631
outer loop
vertex 62.0335540771 -36.4102096558 30.8480758667
vertex 62.5496559143 -36.0225028992 -29.5958766937
vertex 62.3650512695 -35.6653709412 29.3781871796
endloop
endfacet
facet normal 0.0514337234199 0.99865937233 0.0058423965238
outer loop
vertex 59.0384216309 -33.4265136719 -31.4172115326
vertex 50.0051803589 -33.1450805664 0.000155498535605
vertex 57.0793380737 -33.6873664856 30.4164676666
endloop
endfacet
facet normal 0.189881518483 -0.270193725824 -0.94389629364
outer loop
vertex 68.875 -33.7536125183 -29.3447742462
vertex 69.0282440186 -35.8131484985 -28.7243976593
vertex 59.0384216309 -33.4265136719 -31.4172115326
endloop
endfacet
facet normal 0.0780691429973 0.293093472719 0.952891051769
outer loop
vertex 68.8114471436 -33.6912536621 29.4564609528
vertex 57.0793380737 -33.6873664856 30.4164676666
vertex 62.0335540771 -36.4102096558 30.8480758667
endloop
endfacet
facet normal -0.485772848129 -0.8552749753 0.180359438062
outer loop
vertex 57.0793380737 -33.6873664856 30.4164676666
vertex 49.4585838318 -35.7731170654 0.000287295086309
vertex 62.0335540771 -36.4102096558 30.8480758667
endloop
endfacet
facet normal 0.997220754623 0.0744965225458 0.000998802366666
outer loop
vertex 69.0282440186 -35.8131484985 -28.7243976593
vertex 68.875 -33.7536125183 -29.3447742462
vertex 68.8114471436 -33.6912536621 29.4564609528
endloop
endfacet
facet normal -0.953855633736 0.19839861989 0.22538305819
outer loop
vertex 49.4585838318 -35.7731170654 0.000287295086309
vertex 57.0793380737 -33.6873664856 30.4164676666
vertex 50.0051803589 -33.1450805664 0.000155498535605
endloop
endfacet
facet normal 0.310033172369 -0.313472062349 0.897560417652
outer loop
vertex 68.8114471436 -33.6912536621 29.4564609528
vertex 62.0335540771 -36.4102096558 30.8480758667
vertex 68.8608016968 -35.9580345154 28.6477489471
endloop
endfacet
facet normal -0.0253386944532 -0.347749710083 -0.93724489212
outer loop
vertex -48.5033035278 -23.44921875 -4.69014549255
vertex -29.8490715027 -25.4270935059 -4.46060943604
vertex -39.4625930786 -30.570268631 -2.29241323471
endloop
endfacet
facet normal -0.0823592692614 -0.410360425711 -0.908196628094
outer loop
vertex -50.7696762085 -28.7719841003 -2.07957577705
vertex -48.5033035278 -23.44921875 -4.69014549255
vertex -39.4625930786 -30.570268631 -2.29241323471
endloop
endfacet
facet normal -0.156163021922 -0.986848592758 0.0417499393225
outer loop
vertex -50.5564613342 -28.60414505 2.68516802788
vertex -50.7696762085 -28.7719841003 -2.07957577705
vertex -39.4625930786 -30.570268631 -2.29241323471
endloop
endfacet
facet normal 0.350194901228 -0.548869013786 -0.759016692638
outer loop
vertex -21.8361206055 -26.4833526611 0.000220373054617
vertex -28.5443153381 -30.1554450989 -0.439399123192
vertex -29.8490715027 -25.4270935059 -4.46060943604
endloop
endfacet
facet normal 0.414663672447 -0.807689905167 0.419155091047
outer loop
vertex -29.4877357483 -28.5343399048 3.61769938469
vertex -28.5443153381 -30.1554450989 -0.439399123192
vertex -21.8361206055 -26.4833526611 0.000220373054617
endloop
endfacet
facet normal -0.0121099343523 -0.938934028149 0.343884199858
outer loop
vertex -50.5564613342 -28.60414505 2.68516802788
vertex -39.4625930786 -30.570268631 -2.29241323471
vertex -29.4877357483 -28.5343399048 3.61769938469
endloop
endfacet
facet normal 0.0120283802971 -0.111711293459 0.993667960167
outer loop
vertex -48.5335617065 -23.2688598633 4.44021034241
vertex -29.4877357483 -28.5343399048 3.61769938469
vertex -29.5871734619 -24.847486496 4.03339004517
endloop
endfacet
facet normal 0.705721855164 -0.672138750553 -0.224022611976
outer loop
vertex -54.7789878845 -1.74166059494 1.17577826977
vertex -55.0108757019 -2.69071745872 3.29275488853
vertex -57.1471328735 -4.19822692871 1.08607137203
endloop
endfacet
facet normal 0.61056125164 0.70735424757 -0.356181174517
outer loop
vertex -58.1416740417 -1.01948928833 1.24493408203
vertex -57.1179122925 -0.910649895668 3.21600246429
vertex -55.0108757019 -2.69071745872 3.29275488853
endloop
endfacet
facet normal -0.927495002747 -0.301252305508 0.221359536052
outer loop
vertex -57.1471328735 -4.19822692871 1.08607137203
vertex -58.1416740417 -1.01948928833 1.24493408203
vertex -58.2215080261 -2.41823959351 -0.993146240711
endloop
endfacet
facet normal 0.207837507129 0.942808151245 0.26060757041
outer loop
vertex -55.323474884 -0.972022950649 -1.1743324995
vertex -58.1416740417 -1.01948928833 1.24493408203
vertex -54.7789878845 -1.74166059494 1.17577826977
endloop
endfacet
facet normal 0.931367516518 -0.222072407603 -0.288510739803
outer loop
vertex -54.7789878845 -1.74166059494 1.17577826977
vertex -56.0317955017 -4.12699890137 -1.03248739243
vertex -55.323474884 -0.972022950649 -1.1743324995
endloop
endfacet
facet normal 0.672999322414 -0.660900890827 0.332087337971
outer loop
vertex -54.7789878845 -1.74166059494 1.17577826977
vertex -57.1471328735 -4.19822692871 1.08607137203
vertex -56.0317955017 -4.12699890137 -1.03248739243
endloop
endfacet
facet normal -0.907137751579 -0.0611781366169 0.416363239288
outer loop
vertex -58.2215080261 -2.41823959351 -0.993146240711
vertex -56.9609680176 -14.3505573273 -5.87419854128e-05
vertex -57.1471328735 -4.19822692871 1.08607137203
endloop
endfacet
facet normal 0.242919892073 -0.864661574364 -0.439716130495
outer loop
vertex -57.9738845825 -3.52135825157 -3.29632925987
vertex -55.0108833313 -2.6907145977 -3.29281663895
vertex -56.0317955017 -4.12699890137 -1.03248739243
endloop
endfacet
facet normal -0.918602228165 0.308763623238 -0.246647432446
outer loop
vertex -57.1179046631 -0.910639643669 -3.21605491638
vertex -57.9738845825 -3.52135825157 -3.29632925987
vertex -58.2215080261 -2.41823959351 -0.993146240711
endloop
endfacet
facet normal -0.00818160083145 0.0334123931825 -0.999408185482
outer loop
vertex -57.1179046631 -0.910639643669 -3.21605491638
vertex -55.0108833313 -2.6907145977 -3.29281663895
vertex -57.9738845825 -3.52135825157 -3.29632925987
endloop
endfacet
facet normal 0.0569933727384 0.998373746872 0.00117897510063
outer loop
vertex -59.0689544678 -5.62762880325 2.4903512001
vertex -57.3683128357 -5.72092533112 -0.716121196747
vertex -59.1356620789 -5.61795043945 -2.48116850853
endloop
endfacet
facet normal 0.507877469063 -0.0476415269077 -0.860110878944
outer loop
vertex -59.305103302 -14.8946914673 -1.35161936283
vertex -57.3683128357 -5.72092533112 -0.716121196747
vertex -57.0205574036 -14.9579925537 0.000863741559442
endloop
endfacet
facet normal -0.0327510647476 -0.99942702055 0.00854535773396
outer loop
vertex -59.1350708008 -14.8771629333 1.35030734539
vertex -59.305103302 -14.8946914673 -1.35161936283
vertex -57.0205574036 -14.9579925537 0.000863741559442
endloop
endfacet
facet normal 0.0483149625361 0.99882620573 -0.003437820822
outer loop
vertex -57.3683128357 -5.72092533112 -0.716121196747
vertex -59.0689544678 -5.62762880325 2.4903512001
vertex -57.5346603394 -5.70784187317 0.747772216797
endloop
endfacet
facet normal 0.992595791817 0.0460917875171 0.112380310893
outer loop
vertex -57.5346603394 -5.70784187317 0.747772216797
vertex -57.0205574036 -14.9579925537 0.000863741559442
vertex -57.3683128357 -5.72092533112 -0.716121196747
endloop
endfacet
facet normal -0.998025298119 -0.000607400201261 0.0628097578883
outer loop
vertex -59.0689544678 -5.62762880325 2.4903512001
vertex -59.305103302 -14.8946914673 -1.35161936283
vertex -59.1350708008 -14.8771629333 1.35030734539
endloop
endfacet
facet normal 0.536532819271 -0.038249284029 0.843012273312
outer loop
vertex -59.1350708008 -14.8771629333 1.35030734539
vertex -57.0205574036 -14.9579925537 0.000863741559442
vertex -57.5346603394 -5.70784187317 0.747772216797
endloop
endfacet
facet normal -0.999927163124 -0.00724826334044 -0.00965548120439
outer loop
vertex -58.183883667 -13.0663299561 -0.000341263832524
vertex -58.2155418396 -11.6825704575 2.23926305771
vertex -58.1734085083 -11.5389480591 -2.23191714287
endloop
endfacet
facet normal -0.375647991896 -0.736854016781 -0.562080860138
outer loop
vertex -52.2663154602 -16.0827636719 -0.000794170249719
vertex -58.183883667 -13.0663299561 -0.000341263832524
vertex -51.528011322 -14.7352924347 -2.26066422462
endloop
endfacet
facet normal -0.37054798007 -0.765662431717 -0.525790154934
outer loop
vertex -58.183883667 -13.0663299561 -0.000341263832524
vertex -58.1734085083 -11.5389480591 -2.23191714287
vertex -51.528011322 -14.7352924347 -2.26066422462
endloop
endfacet
facet normal 0.860580801964 -0.508828222752 -0.0222378857434
outer loop
vertex -51.528011322 -14.7352924347 -2.26066422462
vertex -51.418006897 -14.7457647324 2.23606801033
vertex -52.2663154602 -16.0827636719 -0.000794170249719
endloop
endfacet
facet normal -0.3988956213 -0.782615721226 0.477906942368
outer loop
vertex -58.2155418396 -11.6825704575 2.23926305771
vertex -58.183883667 -13.0663299561 -0.000341263832524
vertex -52.2663154602 -16.0827636719 -0.000794170249719
endloop
endfacet
facet normal -0.336239784956 -0.746747851372 0.573855817318
outer loop
vertex -52.2663154602 -16.0827636719 -0.000794170249719
vertex -51.418006897 -14.7457647324 2.23606801033
vertex -58.2155418396 -11.6825704575 2.23926305771
endloop
endfacet
facet normal 0.0910962596536 0.993373215199 -0.0700795874
outer loop
vertex -1.69011211395 -19.2878990173 -71.1456756592
vertex -16.8807220459 -18.0261650085 -73.0069198608
vertex 0.0247936248779 -17.8249568939 -48.1793899536
endloop
endfacet
facet normal -0.00721009029076 -0.999029815197 0.0434424616396
outer loop
vertex -17.2527046204 -20.5689201355 -72.8540039062
vertex -1.74514484406 -20.592716217 -70.8274688721
vertex -0.03679895401 -19.6224536896 -48.2312850952
endloop
endfacet
facet normal 0.00453441776335 -0.999368429184 0.0352441333234
outer loop
vertex -0.03679895401 -19.6224536896 -48.2312850952
vertex -22.8082733154 -18.6848907471 -18.7163505554
vertex -17.2527046204 -20.5689201355 -72.8540039062
endloop
endfacet
facet normal 0.1839479357 0.979849696159 -0.0778312906623
outer loop
vertex -1.69011211395 -19.2878990173 -71.1456756592
vertex 5.85771894455 -18.880613327 -48.1794776917
vertex 2.20205879211 -20.0286064148 -71.2719039917
endloop
endfacet
facet normal -0.484679162502 0.122984476388 0.86600279808
outer loop
vertex -16.8807220459 -18.0261650085 -73.0069198608
vertex -22.284954071 -20.3299407959 -75.7043685913
vertex -17.2527046204 -20.5689201355 -72.8540039062
endloop
endfacet
facet normal 0.429497599602 0.783450484276 0.449151694775
outer loop
vertex 7.97444438934 -20.422416687 -76.1047897339
vertex 2.13634872437 -16.615694046 -77.1621780396
vertex 2.20205879211 -20.0286064148 -71.2719039917
endloop
endfacet
facet normal 0.316872626543 -0.938829302788 -0.134875580668
outer loop
vertex 7.97444438934 -20.422416687 -76.1047897339
vertex 0.15834569931 -23.145198822 -75.5152816772
vertex 2.92332458496 -21.7353935242 -78.83253479
endloop
endfacet
facet normal 0.377232551575 0.339151889086 -0.861783921719
outer loop
vertex 2.92332458496 -21.7353935242 -78.83253479
vertex 2.13634872437 -16.615694046 -77.1621780396
vertex 7.97444438934 -20.422416687 -76.1047897339
endloop
endfacet
facet normal 0.177576214075 0.981186509132 -0.0757608562708
outer loop
vertex -1.69011211395 -19.2878990173 -71.1456756592
vertex 0.0247936248779 -17.8249568939 -48.1793899536
vertex 5.85771894455 -18.880613327 -48.1794776917
endloop
endfacet
facet normal -0.0199145227671 0.192256882787 -0.981142520905
outer loop
vertex -21.7297840118 -17.076631546 -76.7680892944
vertex 2.13634872437 -16.615694046 -77.1621780396
vertex -21.2345619202 -22.2493228912 -77.7917404175
endloop
endfacet
facet normal 0.00283213169314 -0.92117780447 -0.389131635427
outer loop
vertex 2.92332458496 -21.7353935242 -78.83253479
vertex 0.15834569931 -23.145198822 -75.5152816772
vertex -21.2345619202 -22.2493228912 -77.7917404175
endloop
endfacet
facet normal 0.0337004810572 -0.596951842308 -0.801568984985
outer loop
vertex -22.8082733154 -18.6848907471 -18.7163505554
vertex 9.93340873718 -18.0132369995 -17.8399868011
vertex -36.342628479 -20.6058197021 -17.8548049927
endloop
endfacet
facet normal 0.0186127182096 -0.326824784279 -0.944901645184
outer loop
vertex 10.0948486328 -24.7446746826 -15.50852108
vertex -36.342628479 -20.6058197021 -17.8548049927
vertex 9.93340873718 -18.0132369995 -17.8399868011
endloop
endfacet
facet normal -0.0225866306573 -0.672684073448 -0.739584922791
outer loop
vertex -36.4277114868 -24.8328037262 -14.0075845718
vertex -36.342628479 -20.6058197021 -17.8548049927
vertex 10.0948486328 -24.7446746826 -15.50852108
endloop
endfacet
facet normal -0.127104565501 0.515467345715 -0.847430109978
outer loop
vertex -36.342628479 -20.6058197021 -17.8548049927
vertex -22.7496414185 -14.998799324 -16.483001709
vertex -22.8082733154 -18.6848907471 -18.7163505554
endloop
endfacet
facet normal 0.2161642313 0.839522600174 -0.498472571373
outer loop
vertex 7.82073974609 -15.8654794693 -15.1389169693
vertex 28.0315361023 -20.970539093 -14.9723367691
vertex 9.93340873718 -18.0132369995 -17.8399868011
endloop
endfacet
facet normal 0.13173109293 0.988604605198 0.0728553906083
outer loop
vertex 25.9829063416 -18.651386261 -10.1750593185
vertex 28.0656585693 -18.8052406311 -11.8532218933
vertex 7.82073974609 -15.8654794693 -15.1389169693
endloop
endfacet
facet normal 0.0608314201236 -0.978964745998 0.194750353694
outer loop
vertex 27.3631095886 -22.6357135773 -10.3011016846
vertex 10.0948486328 -24.7446746826 -15.50852108
vertex 27.9287567139 -23.1231174469 -12.927854538
endloop
endfacet
facet normal 0.165046945214 -0.683353662491 -0.711187124252
outer loop
vertex 28.0315361023 -20.970539093 -14.9723367691
vertex 27.9287567139 -23.1231174469 -12.927854538
vertex 10.0948486328 -24.7446746826 -15.50852108
endloop
endfacet
facet normal -0.998110473156 0.0611442774534 0.00607328210026
outer loop
vertex -36.0211257935 -17.4168567657 7.98898506165
vertex -35.9947280884 -15.1843585968 -10.1492509842
vertex -36.419380188 -22.3575553894 -7.71945619583
endloop
endfacet
facet normal -0.536248266697 -0.356753230095 0.764960765839
outer loop
vertex -40.7958488464 -18.6466445923 -9.05676746368
vertex -40.8546943665 -22.3679275513 -10.8335094452
vertex -36.419380188 -22.3575553894 -7.71945619583
endloop
endfacet
facet normal -0.161587610841 -0.958874940872 0.233341246843
outer loop
vertex -40.8275947571 -23.3005943298 -14.6473760605
vertex -36.419380188 -22.3575553894 -7.71945619583
vertex -40.8546943665 -22.3679275513 -10.8335094452
endloop
endfacet
facet normal -0.993498086929 0.0657117366791 -0.0929699465632
outer loop
vertex -40.2160644531 -17.8024635315 -17.2962379456
vertex -40.8275947571 -23.3005943298 -14.6473760605
vertex -40.5889358521 -15.7424726486 -11.8556442261
endloop
endfacet
facet normal 0.0741616040468 0.238632708788 -0.968273997307
outer loop
vertex 25.4786262512 -20.8968772888 -12.5668544769
vertex 28.0656585693 -18.8052406311 -11.8532218933
vertex 27.9287567139 -23.1231174469 -12.927854538
endloop
endfacet
facet normal 0.58349108696 0.544459462166 0.602579474449
outer loop
vertex 28.0315361023 -20.970539093 -14.9723367691
vertex 25.4786262512 -20.8968772888 -12.5668544769
vertex 27.9287567139 -23.1231174469 -12.927854538
endloop
endfacet
facet normal -0.624678492546 0.162154048681 0.763860464096
outer loop
vertex -38.9421005249 -18.3315525055 -14.1602697372
vertex -40.8275947571 -23.3005943298 -14.6473760605
vertex -39.0212020874 -21.3856563568 -13.5766305923
endloop
endfacet
facet normal -0.673035621643 0.713627696037 -0.194315463305
outer loop
vertex -39.0212020874 -21.3856563568 -13.5766305923
vertex -40.8546943665 -22.3679275513 -10.8335094452
vertex -39.0028572083 -20.547700882 -10.5627450943
endloop
endfacet
facet normal -0.714418292046 -0.129006579518 -0.687723696232
outer loop
vertex -39.0028572083 -20.547700882 -10.5627450943
vertex -40.7958488464 -18.6466445923 -9.05676746368
vertex -38.9573173523 -16.8929138184 -11.2956342697
endloop
endfacet
facet normal -0.227117985487 -0.667359828949 -0.709259033203
outer loop
vertex -40.7958488464 -18.6466445923 -9.05676746368
vertex -40.5889358521 -15.7424726486 -11.8556442261
vertex -38.9573173523 -16.8929138184 -11.2956342697
endloop
endfacet
facet normal 0.587340652943 -0.296681553125 0.753001272678
outer loop
vertex -40.5889358521 -15.7424726486 -11.8556442261
vertex -40.8275947571 -23.3005943298 -14.6473760605
vertex -38.9421005249 -18.3315525055 -14.1602697372
endloop
endfacet
facet normal -0.523395717144 -0.582924425602 0.621494948864
outer loop
vertex -42.1699981689 -18.7563972473 -11.5498313904
vertex -42.5418395996 -20.2240066528 -13.2395067215
vertex -39.0028572083 -20.547700882 -10.5627450943
endloop
endfacet
facet normal 0.300910532475 0.809677302837 0.503860533237
outer loop
vertex -42.1699981689 -18.7563972473 -11.5498313904
vertex -39.0028572083 -20.547700882 -10.5627450943
vertex -38.9421005249 -18.3315525055 -14.1602697372
endloop
endfacet
facet normal -0.499490827322 0.70546233654 -0.502823770046
outer loop
vertex -42.5418395996 -20.2240066528 -13.2395067215
vertex -42.1699981689 -18.7563972473 -11.5498313904
vertex -38.9421005249 -18.3315525055 -14.1602697372
endloop
endfacet
facet normal -0.999891221523 0.0103506017476 -0.0105099510401
outer loop
vertex -38.9573173523 -16.8929138184 -11.2956342697
vertex -38.9421005249 -18.3315525055 -14.1602697372
vertex -39.0028572083 -20.547700882 -10.5627450943
endloop
endfacet
facet normal -0.386373847723 -0.365091770887 -0.847008407116
outer loop
vertex -40.2160644531 -17.8024635315 -17.2962379456
vertex -36.342628479 -20.6058197021 -17.8548049927
vertex -40.8275947571 -23.3005943298 -14.6473760605
endloop
endfacet
facet normal -0.329204499722 0.667307734489 0.66807538271
outer loop
vertex -40.7958488464 -18.6466445923 -9.05676746368
vertex -35.9947280884 -15.1843585968 -10.1492509842
vertex -40.5889358521 -15.7424726486 -11.8556442261
endloop
endfacet
facet normal 0.230692565441 0.486636310816 -0.842594861984
outer loop
vertex -36.1732063293 -15.2029705048 -14.6880235672
vertex -36.342628479 -20.6058197021 -17.8548049927
vertex -40.2160644531 -17.8024635315 -17.2962379456
endloop
endfacet
facet normal -0.023211851716 0.999545097351 -0.019256958738
outer loop
vertex -35.9947280884 -15.1843585968 -10.1492509842
vertex -36.003818512 -14.7469453812 12.5660133362
vertex -22.7496414185 -14.998799324 -16.483001709
endloop
endfacet
facet normal -0.999972343445 0.00741405598819 -0.000542924099136
outer loop
vertex -36.0211257935 -17.4168567657 7.98898506165
vertex -36.003818512 -14.7469453812 12.5660133362
vertex -35.9947280884 -15.1843585968 -10.1492509842
endloop
endfacet
facet normal -0.998567342758 0.0527953878045 0.00871149264276
outer loop
vertex -36.419380188 -22.3575553894 -7.71945619583
vertex -36.32447052 -23.29063797 8.81445407867
vertex -36.0211257935 -17.4168567657 7.98898506165
endloop
endfacet
facet normal -0.0156737975776 0.999871075153 -0.00348396389745
outer loop
vertex -35.9947280884 -15.1843585968 -10.1492509842
vertex -22.7496414185 -14.998799324 -16.483001709
vertex -36.1732063293 -15.2029705048 -14.6880235672
endloop
endfacet
facet normal 0.0652600750327 -0.858015716076 -0.509460687637
outer loop
vertex 2.20205879211 -20.0286064148 -71.2719039917
vertex -1.74514484406 -20.592716217 -70.8274688721
vertex -17.2527046204 -20.5689201355 -72.8540039062
endloop
endfacet
facet normal -0.984432756901 0.137424305081 -0.10957467556
outer loop
vertex -22.7496414185 -14.998799324 -16.483001709
vertex -16.8807220459 -18.0261650085 -73.0069198608
vertex -17.2527046204 -20.5689201355 -72.8540039062
endloop
endfacet
facet normal 0.0577607676387 0.997203886509 -0.0474118441343
outer loop
vertex 0.0247936248779 -17.8249568939 -48.1793899536
vertex -16.8807220459 -18.0261650085 -73.0069198608
vertex -22.7496414185 -14.998799324 -16.483001709
endloop
endfacet
facet normal 0.177197322249 0.97909450531 -0.0998754650354
outer loop
vertex 7.82073974609 -15.8654794693 -15.1389169693
vertex 5.85771894455 -18.880613327 -48.1794776917
vertex 0.0247936248779 -17.8249568939 -48.1793899536
endloop
endfacet
facet normal 0.12278226018 -0.984402775764 0.125999063253
outer loop
vertex -22.8082733154 -18.6848907471 -18.7163505554
vertex -0.03679895401 -19.6224536896 -48.2312850952
vertex 5.85771894455 -18.880613327 -48.1794776917
endloop
endfacet
facet normal -0.026590840891 -0.799533426762 0.600032806396
outer loop
vertex 0.15834569931 -23.145198822 -75.5152816772
vertex 2.20205879211 -20.0286064148 -71.2719039917
vertex -17.2527046204 -20.5689201355 -72.8540039062
endloop
endfacet
facet normal 0.178144574165 0.852271318436 0.491831481457
outer loop
vertex 2.20205879211 -20.0286064148 -71.2719039917
vertex 2.13634872437 -16.615694046 -77.1621780396
vertex -1.69011211395 -19.2878990173 -71.1456756592
endloop
endfacet
facet normal -0.0788123831153 -0.922631680965 0.37754380703
outer loop
vertex -21.2345619202 -22.2493228912 -77.7917404175
vertex 0.15834569931 -23.145198822 -75.5152816772
vertex -17.2527046204 -20.5689201355 -72.8540039062
endloop
endfacet
facet normal 0.0859865248203 0.994087636471 0.0663036555052
outer loop
vertex -1.70334148407 -19.1850376129 70.8121261597
vertex 0.0247869491577 -17.824962616 48.179397583
vertex -16.8803462982 -18.0177612305 72.9936523438
endloop
endfacet
facet normal 0.453512489796 0.731649756432 -0.508935213089
outer loop
vertex 2.87453842163 -16.8108711243 76.556854248
vertex 8.06712436676 -20.2768573761 76.2012481689
vertex 2.25230503082 -20.1156597137 71.2513885498
endloop
endfacet
facet normal 0.366272330284 -0.810733318329 -0.456679344177
outer loop
vertex 1.1798324585 -23.4441490173 76.3002319336
vertex 2.25230503082 -20.1156597137 71.2513885498
vertex 8.06712436676 -20.2768573761 76.2012481689
endloop
endfacet
facet normal -0.903690457344 -0.225785806775 -0.363818913698
outer loop
vertex -20.5132865906 -22.1984634399 75.6580505371
vertex -22.055557251 -20.0037593842 78.1268768311
vertex -21.8192863464 -17.1958847046 75.7974395752
endloop
endfacet
facet normal -0.0437477305532 -0.682715475559 0.729373455048
outer loop
vertex 1.1798324585 -23.4441490173 76.3002319336
vertex 0.930033624172 -20.0580711365 79.4547195435
vertex -22.055557251 -20.0037593842 78.1268768311
endloop
endfacet
facet normal 0.0362887345254 -0.234964206815 0.97132641077
outer loop
vertex -22.8082771301 -18.6848888397 18.7163448334
vertex -4.46946716309 -25.4777984619 16.3879985809
vertex 10.3323488235 -17.2229347229 17.8318576813
endloop
endfacet
facet normal 0.079581014812 -0.308492898941 0.947891831398
outer loop
vertex 10.3323488235 -17.2229347229 17.8318576813
vertex -4.46946716309 -25.4777984619 16.3879985809
vertex 27.9019947052 -21.7010688782 14.8993692398
endloop
endfacet
facet normal 0.104488097131 0.994325220585 0.0199889503419
outer loop
vertex 25.9883804321 -18.7140750885 10.1687173843
vertex 10.3323488235 -17.2229347229 17.8318576813
vertex 28.0377063751 -19.0002937317 13.6936235428
endloop
endfacet
facet normal 0.00116973300464 -0.99974745512 -0.0224445164204
outer loop
vertex 10.0948486328 -24.7446746826 -15.50852108
vertex -4.46946716309 -25.4777984619 16.3879985809
vertex -36.4277114868 -24.8328037262 -14.0075845718
endloop
endfacet
facet normal -0.983616232872 -0.0560219399631 -0.171349063516
outer loop
vertex -40.8749046326 -23.3564872742 13.4547529221
vertex -40.5711364746 -17.8181419373 9.90022468567
vertex -40.1881866455 -23.9033660889 9.69150447845
endloop
endfacet
facet normal 0.246522203088 0.384725481272 0.889501571655
outer loop
vertex 28.0377063751 -19.0002937317 13.6936235428
vertex 10.3323488235 -17.2229347229 17.8318576813
vertex 27.9019947052 -21.7010688782 14.8993692398
endloop
endfacet
facet normal -0.989890158176 0.141399785876 0.0111158015206
outer loop
vertex -40.6716308594 -19.0398254395 16.4914779663
vertex -40.2795791626 -15.7331619263 9.34195804596
vertex -40.5711364746 -17.8181419373 9.90022468567
endloop
endfacet
facet normal 0.969500184059 -0.241710662842 -0.0405616946518
outer loop
vertex 27.9971313477 -20.564081192 10.3978490829
vertex 27.9019947052 -21.7010688782 14.8993692398
vertex 27.3048171997 -23.598657608 11.9336614609
endloop
endfacet
facet normal 0.450833171606 -0.808571219444 0.378103196621
outer loop
vertex 28.0377063751 -19.0002937317 13.6936235428
vertex 25.4789085388 -20.9379081726 12.6010370255
vertex 27.9971313477 -20.564081192 10.3978490829
endloop
endfacet
facet normal 0.581730723381 -0.35577955842 -0.731443941593
outer loop
vertex 27.9019947052 -21.7010688782 14.8993692398
vertex 25.4789085388 -20.9379081726 12.6010370255
vertex 28.0377063751 -19.0002937317 13.6936235428
endloop
endfacet
facet normal -0.646507203579 0.459091156721 -0.609314262867
outer loop
vertex -40.8749046326 -23.3564872742 13.4547529221
vertex -40.6716308594 -19.0398254395 16.4914779663
vertex -39.0072097778 -18.438999176 15.1781549454
endloop
endfacet
facet normal 0.476214021444 0.456303626299 0.751669585705
outer loop
vertex -40.8749046326 -23.3564872742 13.4547529221
vertex -39.0007171631 -20.5515956879 10.5646543503
vertex -40.5711364746 -17.8181419373 9.90022468567
endloop
endfacet
facet normal 0.580678462982 -0.802039563656 -0.13980409503
outer loop
vertex -40.5711364746 -17.8181419373 9.90022468567
vertex -38.9572486877 -16.8929138184 11.2956132889
vertex -40.6716308594 -19.0398254395 16.4914779663
endloop
endfacet
facet normal -0.56863874197 0.656708657742 0.495362341404
outer loop
vertex -42.1062316895 -20.562713623 13.3814888
vertex -39.3706588745 -18.1033287048 13.2612695694
vertex -42.4856147766 -19.4677639008 11.4943847656
endloop
endfacet
facet normal -0.0132838273421 -0.189673468471 0.981757342815
outer loop
vertex -36.4885368347 -24.2246303558 15.5463857651
vertex -36.5468482971 -16.6355209351 17.0117969513
vertex -40.6716308594 -19.0398254395 16.4914779663
endloop
endfacet
facet normal 0.125635460019 -0.983076155186 -0.133330836892
outer loop
vertex -36.32447052 -23.29063797 8.81445407867
vertex -36.4885368347 -24.2246303558 15.5463857651
vertex -40.1881866455 -23.9033660889 9.69150447845
endloop
endfacet
facet normal 0.178251340985 0.849653720856 -0.496301293373
outer loop
vertex -36.0211257935 -17.4168567657 7.98898506165
vertex -40.2795791626 -15.7331619263 9.34195804596
vertex -36.003818512 -14.7469453812 12.5660133362
endloop
endfacet
facet normal 0.0661900117993 0.99691182375 0.0422579199076
outer loop
vertex 0.0247869491577 -17.824962616 48.179397583
vertex 10.3323488235 -17.2229347229 17.8318576813
vertex -22.721540451 -14.9703512192 16.4643287659
endloop
endfacet
facet normal -0.257336586714 -0.388977408409 -0.884575784206
outer loop
vertex 25.9883804321 -18.7140750885 10.1687173843
vertex 27.9971313477 -20.564081192 10.3978490829
vertex 27.3048171997 -23.598657608 11.9336614609
endloop
endfacet
facet normal 0.0664648488164 0.997139453888 0.0359907113016
outer loop
vertex 10.3323488235 -17.2229347229 17.8318576813
vertex 7.82073974609 -15.8654794693 -15.1389169693
vertex -22.721540451 -14.9703512192 16.4643287659
endloop
endfacet
facet normal 0.143591016531 0.989188671112 0.02978804335
outer loop
vertex 25.9829063416 -18.651386261 -10.1750593185
vertex 7.82073974609 -15.8654794693 -15.1389169693
vertex 10.3323488235 -17.2229347229 17.8318576813
endloop
endfacet
facet normal 0.13374556601 -0.990102767944 -0.042528770864
outer loop
vertex 27.3631095886 -22.6357135773 -10.3011016846
vertex 27.3048171997 -23.598657608 11.9336614609
vertex 10.0948486328 -24.7446746826 -15.50852108
endloop
endfacet
facet normal 0.0567441210151 -0.904221236706 0.423277944326
outer loop
vertex 2.25230503082 -20.1156597137 71.2513885498
vertex -17.2500457764 -20.572435379 72.8900909424
vertex -1.74847197533 -20.581287384 70.7930374146
endloop
endfacet
facet normal -0.990730643272 0.0865897834301 0.104666091502
outer loop
vertex -17.2500457764 -20.572435379 72.8900909424
vertex -22.721540451 -14.9703512192 16.4643287659
vertex -22.8082771301 -18.6848888397 18.7163448334
endloop
endfacet
facet normal 0.0427353717387 -0.99792265892 -0.0482087321579
outer loop
vertex -22.8082771301 -18.6848888397 18.7163448334
vertex 10.3323488235 -17.2229347229 17.8318576813
vertex 5.8577246666 -18.8806190491 48.1794204712
endloop
endfacet
facet normal 0.058637496084 0.997139275074 0.0476951636374
outer loop
vertex 0.0247869491577 -17.824962616 48.179397583
vertex -22.721540451 -14.9703512192 16.4643287659
vertex -16.8803462982 -18.0177612305 72.9936523438
endloop
endfacet
facet normal 0.122780807316 -0.984402894974 -0.125999301672
outer loop
vertex -22.8082771301 -18.6848888397 18.7163448334
vertex 5.8577246666 -18.8806190491 48.1794204712
vertex -0.0367951393127 -19.6224517822 48.2312355042
endloop
endfacet
facet normal -0.0270829126239 -0.831934511662 -0.554212510586
outer loop
vertex 1.1798324585 -23.4441490173 76.3002319336
vertex -17.2500457764 -20.572435379 72.8900909424
vertex 2.25230503082 -20.1156597137 71.2513885498
endloop
endfacet
endsolid vcg
