solid AssimpScene
  facet normal 0 0 -1
    outer loop
      vertex 1 1 -1
      vertex 1 -1 -1
      vertex -1 -1 -1
    endloop
  endfacet
  facet normal 0 0 -1
    outer loop
      vertex -1 -1 -1
      vertex -1 1 -1
      vertex 1 1 -1
    endloop
  endfacet
  facet normal 0 0 1
    outer loop
      vertex 1 0.999999 1
      vertex -1 1 1
      vertex -1 -1 1
    endloop
  endfacet
  facet normal 0 0 1
    outer loop
      vertex -1 -1 1
      vertex 0.999999 -1 1
      vertex 1 0.999999 1
    endloop
  endfacet
  facet normal 1 -5.66244e-07 -2.38419e-07
    outer loop
      vertex 1 1 -1
      vertex 1 0.999999 1
      vertex 0.999999 -1 1
    endloop
  endfacet
  facet normal 1 -5.03328e-07 -1.75503e-07
    outer loop
      vertex 0.999999 -1 1
      vertex 1 -1 -1
      vertex 1 1 -1
    endloop
  endfacet
  facet normal -4.76837e-07 -1 -2.98023e-07
    outer loop
      vertex 1 -1 -1
      vertex 0.999999 -1 1
      vertex -1 -1 1
    endloop
  endfacet
  facet normal -4.33789e-07 -1 -2.54975e-07
    outer loop
      vertex -1 -1 1
      vertex -1 -1 -1
      vertex 1 -1 -1
    endloop
  endfacet
  facet normal -1 2.08616e-07 -1.19209e-07
    outer loop
      vertex -1 -1 -1
      vertex -1 -1 1
      vertex -1 1 1
    endloop
  endfacet
  facet normal -1 2.11927e-07 -1.2252e-07
    outer loop
      vertex -1 1 1
      vertex -1 1 -1
      vertex -1 -1 -1
    endloop
  endfacet
  facet normal 2.08616e-07 1 2.38419e-07
    outer loop
      vertex 1 0.999999 1
      vertex 1 1 -1
      vertex -1 1 -1
    endloop
  endfacet
  facet normal 2.15239e-07 1 2.31796e-07
    outer loop
      vertex -1 1 -1
      vertex -1 1 1
      vertex 1 0.999999 1
    endloop
  endfacet
endsolid AssimpScene
